<?xml version="1.0" encoding="utf-8"?>
<!-- Generator: Adobe Illustrator 19.2.1, SVG Export Plug-In . SVG Version: 6.00 Build 0)  -->
<svg version="1.1" id="layer" xmlns="http://www.w3.org/2000/svg" xmlns:xlink="http://www.w3.org/1999/xlink" x="0px" y="0px"
	 viewBox="0 0 652 652" style="enable-background:new 0 0 652 652;" xml:space="preserve">
<style type="text/css">
	.st0{fill:#004484;}
</style>
<g>
	<path class="st0" d="M542.8,307.6c0.9-3.6,3.2-5.3,7.1-5.3h49.5l3.5-13.9h-68c-13.5,0-22,7.5-26.1,23.9l-2.5,10
		c-4.1,16.3,0.6,24.1,14.1,24.1h28.4c4.3,0,6.4,2.2,5.5,5.8l-1.4,5.6c-0.9,3.6-4.1,5.8-8.4,5.8h-48l-3.5,13.9h65.2
		c15,0,24.2-6.6,27.5-19.7l4.8-19.1c3.3-13.1-2.6-19.7-17.6-19.7h-27.1c-3.9,0-5.4-1.7-4.5-5.2L542.8,307.6z"/>
	<path class="st0" d="M268.8,307.6c0.9-3.6,3.2-5.3,7.1-5.3h49.4l3.5-13.9h-68c-13.5,0-22,7.5-26,23.9l-2.5,10
		c-4.1,16.3,0.6,24.1,14.1,24.1h28.4c4.3,0,6.4,2.2,5.5,5.8l-1.4,5.6c-0.9,3.6-4.1,5.8-8.4,5.8h-48l-3.5,13.9h65.2
		c15,0,24.2-6.6,27.5-19.7l4.8-19.1c3.3-13.1-2.6-19.7-17.6-19.7h-27.1c-4,0-5.4-1.7-4.5-5.2L268.8,307.6z"/>
	<path class="st0" d="M360.6,354.5l13-52.2h18.7l3.5-13.9h-18.7l5.4-21.6l-38.3,18.7l-16.7,67c-4.3,17.3,2,25,15.2,25h34l3.5-13.9
		h-13.8C360.6,363.5,358.8,361.9,360.6,354.5"/>
	<polygon class="st0" points="72.3,377.4 140.2,269.7 121.9,269.7 69.7,355.5 69.6,355.5 58.8,269.7 20.6,269.7 35.6,377.4 	"/>
	<path class="st0" d="M204.5,288.4h-49.1c-15,0-24,7.3-28.1,23.7L117,353.8c-4.1,16.3,1.2,23.7,16.3,23.7h71.2l3.5-13.9h-52.9
		c-4.3,0-6.4-2.2-5.5-5.8l3-12.2h59.8l8.3-33.4C224.9,295.7,219.6,288.4,204.5,288.4 M188.2,308.1l-5.8,23.5h-26.2l5.7-22.9
		c1.2-4.7,2.9-6.4,7.2-6.4h13.7C187,302.3,189.1,304.6,188.2,308.1"/>
	<path class="st0" d="M478.5,288.4h-68.2l-3.5,13.9h49.8c4.3,0,6.4,2.3,5.5,5.8l-2.7,10.7h-37.2c-15,0-24.2,6.6-27.5,19.7l-4.8,19.2
		c-3.3,13.2,2.6,19.7,17.6,19.7h70.9l16.3-65.4C498.8,295.7,493.5,288.4,478.5,288.4 M448.3,363.5H429c-4.3,0-6.4-2.2-5.5-5.8
		l4.8-19.2c0.9-3.6,4.1-5.8,8.4-5.8H456L448.3,363.5z"/>
	<path class="st0" d="M607.2,377.5c-7.4,0-13.4-6-13.4-13.5s5.9-13.5,13.4-13.5c7.4,0,13.4,6,13.4,13.5S614.6,377.5,607.2,377.5
		 M607.2,352.1c-6.5,0-11.6,5.3-11.6,11.9s5.1,11.8,11.6,11.8c6.5,0,11.6-5.3,11.6-11.8S613.7,352.1,607.2,352.1 M609.8,365.3
		l2.6,5.7h-2l-2.4-5.4h-0.3h-3.3v5.4h-1.7v-14.3h5c3.2,0,4.8,2.2,4.8,4.5C612.6,363,611.6,364.6,609.8,365.3 M607.8,358.5h-3.3v5.5
		h3.3c2.2,0,3.1-1.4,3.1-2.7C610.8,359.9,610,358.5,607.8,358.5"/>
</g>
</svg>
