<?xml version="1.0" standalone="no"?>
<!DOCTYPE svg PUBLIC "-//W3C//DTD SVG 20010904//EN"
 "http://www.w3.org/TR/2001/REC-SVG-20010904/DTD/svg10.dtd">
<svg version="1.0" xmlns="http://www.w3.org/2000/svg"
 width="512.000000pt" height="512.000000pt" viewBox="0 0 512.000000 512.000000"
 preserveAspectRatio="xMidYMid meet">

<g transform="translate(0.000000,512.000000) scale(0.100000,-0.100000)"
fill="#000000" stroke="none">
<path d="M1292 3608 c-8 -8 -12 -50 -12 -125 0 -110 -1 -113 -22 -113 -146 -2
-807 -30 -819 -35 -10 -4 -93 -167 -194 -383 l-178 -377 -19 -323 c-19 -308
-19 -324 -2 -343 16 -18 32 -19 260 -19 242 0 244 0 258 23 7 12 17 40 21 61
18 103 101 203 213 258 62 30 74 33 172 33 97 0 110 -2 170 -31 84 -40 159
-109 192 -176 28 -57 58 -183 58 -245 0 -47 23 -83 54 -83 34 0 56 30 56 78
l0 42 138 0 c164 0 172 4 172 88 l0 52 360 0 360 0 0 -88 c0 -105 6 -113 95
-132 103 -21 386 -25 495 -6 125 22 130 27 130 138 l0 88 84 0 84 0 -9 -37
c-12 -55 -11 -127 3 -141 16 -16 63 -15 77 1 6 8 15 46 21 85 20 145 107 263
237 325 62 29 76 32 168 32 92 0 106 -3 168 -32 130 -62 217 -180 237 -322 12
-85 21 -101 59 -101 35 0 51 17 51 52 l0 28 174 0 c145 0 177 3 190 16 9 8 16
22 16 30 0 21 20 17 87 -16 41 -21 69 -43 87 -70 29 -44 62 -53 90 -24 22 21
20 40 -8 89 -36 60 -130 119 -224 140 -27 5 -32 11 -32 35 0 51 -14 55 -253
60 -164 4 -221 8 -225 18 -3 9 59 12 286 12 367 0 343 -17 281 187 -24 80 -50
152 -57 160 -11 11 -287 13 -1628 13 l-1614 0 0 504 c0 391 -3 506 -12 514
-16 13 -230 72 -261 72 -13 0 -28 -5 -35 -12z m166 -129 l42 -12 0 -507 c0
-380 3 -509 12 -518 9 -9 386 -12 1634 -12 l1621 0 18 -62 c9 -34 19 -68 22
-75 4 -10 -53 -13 -295 -13 l-300 0 -72 34 c-146 70 -301 71 -445 1 l-73 -35
-1136 0 c-642 0 -1136 4 -1136 9 0 5 7 28 15 51 13 36 15 130 15 602 0 528 1
559 18 554 9 -2 36 -10 60 -17z m-178 -642 c0 -361 -2 -430 -16 -470 -9 -26
-19 -49 -24 -52 -4 -3 -32 6 -61 20 -258 118 -585 -15 -680 -277 l-22 -58
-169 0 c-115 0 -169 3 -166 11 2 5 30 21 63 34 33 14 67 35 77 47 53 72 64
244 18 293 -20 21 -32 25 -80 25 l-56 0 4 67 c3 37 12 86 22 108 l18 41 373
43 c206 24 388 49 406 56 17 8 38 24 47 37 16 25 46 236 46 326 0 47 -4 58
-31 83 l-31 29 -269 2 c-251 3 -269 4 -257 20 11 14 50 18 293 26 154 5 328 9
388 10 l107 2 0 -423z m-307 256 c5 -7 -22 -264 -28 -271 -4 -5 -670 -81 -674
-77 -5 5 130 295 155 333 14 22 16 22 279 22 145 0 266 -3 268 -7z m-748 -793
c12 -20 -14 -125 -36 -142 -33 -27 -39 -22 -39 31 0 70 10 109 29 114 28 8 40
7 46 -3z m3275 -136 c0 -3 -9 -19 -21 -35 l-20 -29 -860 0 c-846 0 -859 0
-879 -20 -15 -15 -20 -33 -20 -70 l0 -51 -111 3 -111 3 -18 57 c-9 31 -29 77
-43 102 l-26 46 1055 0 c580 0 1054 -3 1054 -6z m1200 -154 c0 -19 -7 -20
-145 -20 -80 0 -145 2 -145 4 0 2 -3 11 -6 20 -5 14 11 16 145 16 144 0 151
-1 151 -20z m-1550 -74 c0 -30 -4 -57 -9 -60 -4 -3 -60 -11 -124 -17 -89 -10
-143 -10 -235 -1 -66 7 -127 15 -136 18 -12 5 -16 20 -16 60 l0 54 260 0 260
0 0 -54z"/>
<path d="M910 2557 c-63 -32 -16 -79 79 -80 92 -1 140 41 89 77 -27 20 -132
21 -168 3z"/>
<path d="M3837 2209 c-103 -24 -197 -103 -244 -204 -23 -50 -27 -73 -27 -140
1 -91 19 -148 66 -210 149 -194 438 -189 572 9 93 137 84 309 -21 426 -58 65
-107 96 -180 115 -63 16 -108 18 -166 4z m157 -111 c55 -16 140 -101 155 -154
47 -170 -63 -324 -234 -324 -76 0 -128 24 -182 82 -90 99 -86 236 12 333 70
71 152 91 249 63z"/>
<path d="M848 2177 c-145 -61 -223 -185 -216 -342 8 -192 141 -325 333 -333
113 -5 180 21 261 102 81 81 107 148 102 261 -4 96 -34 167 -99 233 -67 67
-137 96 -239 100 -71 2 -94 -1 -142 -21z m241 -107 c85 -44 135 -125 135 -220
0 -97 -50 -176 -139 -223 -55 -29 -155 -29 -210 0 -89 47 -139 126 -139 223 0
73 17 115 68 168 74 80 191 101 285 52z"/>
</g>
</svg>
