<?xml version="1.0" standalone="no"?>
<!DOCTYPE svg PUBLIC "-//W3C//DTD SVG 20010904//EN"
 "http://www.w3.org/TR/2001/REC-SVG-20010904/DTD/svg10.dtd">
<svg version="1.0" xmlns="http://www.w3.org/2000/svg"
 width="512.000000pt" height="512.000000pt" viewBox="0 0 512.000000 512.000000"
 preserveAspectRatio="xMidYMid meet">

<g transform="translate(0.000000,512.000000) scale(0.100000,-0.100000)"
fill="#000000" stroke="none">
<path d="M29 4161 l-29 -29 0 -1082 0 -1082 29 -29 c29 -29 30 -29 149 -29
l119 0 0 -92 c1 -123 38 -243 103 -325 11 -14 20 -30 20 -34 0 -5 -82 -9 -183
-9 -170 0 -185 -1 -205 -20 -52 -49 -32 -131 36 -150 28 -7 800 -9 2516 -8
l2476 3 27 27 c35 36 37 87 3 123 l-23 25 -441 2 -441 3 -3 153 -3 152 265 0
c184 0 273 4 291 12 47 21 55 53 55 213 l0 145 134 0 c128 0 136 1 163 24 l28
24 3 966 c3 1056 5 1014 -54 1036 -16 6 -954 10 -2515 10 l-2491 0 -29 -29z
m4901 -301 l0 -150 -2375 0 -2375 0 0 150 0 150 2375 0 2375 0 0 -150z m10
-940 l0 -610 -957 0 -958 0 -106 -110 -106 -110 -135 0 -134 0 -49 62 c-57 71
-146 136 -232 168 -71 27 -222 38 -303 21 -117 -24 -235 -99 -311 -197 l-41
-54 -157 0 -157 0 -17 30 c-30 49 -117 129 -182 165 -150 84 -350 88 -506 10
-67 -35 -145 -100 -185 -156 l-36 -49 -94 0 -94 0 0 720 0 720 2380 0 2380 0
0 -610z m-3946 -785 c67 -34 123 -92 163 -167 25 -48 28 -63 28 -153 0 -91 -3
-105 -30 -158 -38 -76 -118 -149 -193 -177 -80 -30 -204 -26 -282 11 -278 131
-268 535 16 655 51 21 71 24 150 21 76 -2 99 -7 148 -32z m1213 13 c81 -30
171 -121 202 -202 30 -81 30 -181 0 -262 -31 -81 -121 -172 -202 -202 -78 -30
-186 -30 -264 0 -80 29 -172 121 -201 201 -30 79 -30 185 0 264 30 78 121 171
198 201 77 29 189 29 267 0z m1195 -179 l3 -161 28 -24 28 -24 270 0 269 0 0
-155 0 -155 -760 0 -761 0 29 43 c75 108 103 197 103 325 l0 92 137 0 137 0
105 109 105 109 152 1 152 1 3 -161z m1208 66 l0 -95 -515 0 -515 0 0 95 0 95
515 0 515 0 0 -95z m-3068 -237 c6 -129 25 -192 88 -286 l39 -57 -211 -3
c-116 -1 -213 0 -216 2 -2 3 8 19 22 37 67 80 106 201 106 333 l0 86 84 0 83
0 5 -112z"/>
<path d="M515 3365 c-35 -34 -34 -93 1 -126 l26 -24 2020 0 2020 0 24 28 c32
38 32 90 -1 122 l-24 25 -2021 0 -2021 0 -24 -25z"/>
<path d="M543 3055 c-58 -25 -72 -97 -28 -140 l24 -25 1494 0 1494 0 22 24
c33 35 31 90 -3 125 l-26 26 -1473 2 c-1236 2 -1477 0 -1504 -12z"/>
<path d="M725 2047 c-94 -46 -145 -127 -145 -232 0 -146 109 -255 255 -255 99
1 178 50 228 144 30 57 30 165 0 222 -27 50 -73 99 -117 121 -17 9 -62 18
-101 20 -59 3 -78 0 -120 -20z m164 -183 c12 -15 21 -37 21 -49 0 -38 -37 -75
-76 -75 -45 0 -74 29 -74 75 0 72 86 104 129 49z"/>
<path d="M1959 2042 c-188 -98 -186 -362 3 -456 136 -68 304 0 353 143 75 219
-153 419 -356 313z m170 -178 c12 -15 21 -37 21 -49 0 -12 -9 -34 -21 -49 -41
-52 -129 -19 -129 48 0 69 87 103 129 50z"/>
<path d="M715 1113 c-65 -16 -88 -101 -40 -148 l24 -25 1861 0 1861 0 24 25
c35 34 34 93 -1 126 l-26 24 -1841 1 c-1013 1 -1851 0 -1862 -3z"/>
</g>
</svg>
