<?xml version="1.0" standalone="no"?>
<!DOCTYPE svg PUBLIC "-//W3C//DTD SVG 20010904//EN"
 "http://www.w3.org/TR/2001/REC-SVG-20010904/DTD/svg10.dtd">
<svg version="1.0" xmlns="http://www.w3.org/2000/svg"
 width="512.000000pt" height="512.000000pt" viewBox="0 0 512.000000 512.000000"
 preserveAspectRatio="xMidYMid meet">

<g transform="translate(0.000000,512.000000) scale(0.100000,-0.100000)"
fill="#000000" stroke="none">
<path d="M3315 3895 l-25 -24 0 -771 0 -770 -1540 0 -1541 0 -24 -25 -25 -24
0 -254 c0 -325 -10 -305 162 -309 l122 -3 12 -68 c57 -305 364 -504 663 -431
36 9 93 30 126 48 57 29 180 138 204 181 l11 20 11 -20 c7 -11 41 -50 78 -86
213 -211 549 -211 762 2 76 75 133 179 150 274 7 33 13 66 15 73 3 9 125 12
569 12 444 0 566 -3 569 -12 41 -163 111 -274 223 -354 92 -66 172 -94 289
-101 109 -7 170 6 273 54 135 64 253 211 286 355 l11 53 112 3 c171 4 152
-108 152 916 l0 860 -213 213 -213 213 -597 0 -598 0 -24 -25z m1260 -245
l109 -109 -418 -3 -418 -3 -19 -24 c-18 -22 -19 -44 -19 -376 l0 -354 26 -20
c26 -21 36 -21 495 -21 l469 0 0 -84 0 -83 -92 48 c-103 54 -140 60 -175 27
-24 -22 -31 -70 -14 -97 5 -8 69 -47 143 -86 115 -63 133 -76 136 -99 l3 -27
-38 17 c-86 37 -101 39 -131 17 -35 -26 -47 -60 -33 -96 8 -22 31 -37 106 -72
l95 -44 0 -140 0 -141 -49 0 -50 0 -16 58 c-55 188 -195 330 -384 386 -71 21
-220 21 -292 0 -145 -43 -276 -152 -341 -284 -21 -41 -40 -94 -44 -117 l-7
-43 -83 0 -84 0 0 940 0 940 508 0 507 0 110 -110z m225 -510 l0 -240 -415 0
-415 0 0 240 0 240 415 0 415 0 0 -240z m-478 -998 c79 -38 149 -110 186 -190
24 -50 27 -69 27 -157 0 -89 -3 -107 -28 -160 -37 -79 -114 -156 -191 -192
-54 -25 -72 -28 -161 -28 -87 0 -107 3 -155 26 -82 39 -154 109 -192 187 -31
62 -33 74 -33 167 0 87 3 107 27 157 47 100 137 180 241 214 26 9 74 13 128
11 74 -3 96 -8 151 -35z m-3728 -24 c-60 -64 -89 -110 -114 -180 l-18 -53 -71
-3 -71 -3 0 146 0 145 161 0 162 0 -49 -52z m945 15 c-19 -21 -44 -51 -57 -68
-21 -29 -22 -29 -34 -10 -6 11 -32 41 -56 67 l-45 48 113 0 112 0 -33 -37z
m1751 -108 l0 -145 -414 0 -413 0 -21 58 c-26 70 -66 135 -119 190 l-40 42
504 0 503 0 0 -145z m-2216 100 c37 -8 87 -25 110 -39 59 -35 133 -117 164
-184 23 -49 27 -70 27 -152 0 -86 -3 -101 -32 -162 -40 -85 -106 -151 -191
-191 -60 -28 -77 -32 -157 -32 -113 1 -183 26 -258 95 -99 90 -142 211 -125
344 25 185 179 321 378 335 8 0 46 -6 84 -14z m981 -12 c137 -48 229 -158 256
-306 23 -124 -21 -248 -121 -340 -82 -76 -148 -101 -265 -102 -80 0 -97 4
-157 32 -85 40 -151 106 -191 191 -28 60 -32 77 -32 157 1 116 26 184 100 263
106 115 265 156 410 105z"/>
<path d="M4124 1939 c-121 -35 -140 -203 -32 -269 95 -58 221 13 221 125 0 98
-96 172 -189 144z m51 -139 c3 -5 1 -10 -4 -10 -6 0 -11 5 -11 10 0 6 2 10 4
10 3 0 8 -4 11 -10z"/>
<path d="M941 1887 c-19 -7 -48 -29 -64 -50 -98 -121 43 -290 183 -219 107 53
107 205 0 260 -49 25 -70 26 -119 9z m59 -137 c0 -5 -5 -10 -11 -10 -5 0 -7 5
-4 10 3 6 8 10 11 10 2 0 4 -4 4 -10z"/>
<path d="M1864 1880 c-108 -55 -110 -208 -3 -262 74 -38 157 -12 197 63 68
126 -66 264 -194 199z m76 -130 c0 -5 -4 -10 -10 -10 -5 0 -10 5 -10 10 0 6 5
10 10 10 6 0 10 -4 10 -10z"/>
</g>
</svg>
