<?xml version="1.0" standalone="no"?>
<!DOCTYPE svg PUBLIC "-//W3C//DTD SVG 20010904//EN"
 "http://www.w3.org/TR/2001/REC-SVG-20010904/DTD/svg10.dtd">
<svg version="1.0" xmlns="http://www.w3.org/2000/svg"
 width="1280.000000pt" height="640.000000pt" viewBox="0 0 1280.000000 640.000000"
 preserveAspectRatio="xMidYMid meet">
<metadata>
Created by potrace 1.15, written by Peter Selinger 2001-2017
</metadata>
<g transform="translate(0.000000,640.000000) scale(0.100000,-0.100000)"
fill="#000000" stroke="none">
<path d="M1997 4723 c-4 -3 -7 -436 -7 -961 l0 -954 2948 7 c1621 4 2948 8
2948 9 1 0 4 430 8 954 l6 952 -2948 0 c-1622 0 -2952 -3 -2955 -7z"/>
<path d="M8434 3813 c4 -505 9 -932 12 -950 5 -23 13 -33 32 -38 15 -4 993 -9
2175 -12 l2147 -5 0 961 0 961 -2187 0 -2186 0 7 -917z"/>
<path d="M1230 4219 c-279 -17 -707 -50 -768 -59 -35 -5 -70 -14 -79 -21 -36
-31 -106 -195 -283 -667 l-102 -273 3 -488 c3 -393 7 -491 18 -505 9 -11 29
-16 62 -16 45 0 51 3 69 33 11 17 31 66 45 107 60 178 168 310 326 399 79 44
138 59 258 66 218 13 351 -35 497 -180 95 -94 138 -167 188 -315 l35 -105
1253 -3 1254 -2 18 72 c23 89 57 168 113 268 l43 75 -1113 6 c-1004 5 -1297
11 -1364 25 -15 3 -26 16 -33 42 -8 25 -14 282 -19 782 -4 410 -10 751 -15
758 -8 14 -186 14 -406 1z m-64 -195 c20 -5 21 -13 28 -249 3 -133 3 -293 0
-355 -6 -100 -9 -113 -28 -121 -28 -12 -426 -62 -719 -90 l-237 -23 -28 21
c-58 43 -56 58 40 313 92 245 171 422 198 442 28 20 152 44 293 57 108 10 423
13 453 5z"/>
<path d="M728 2600 c-222 -38 -351 -183 -365 -410 -13 -209 80 -376 258 -464
131 -65 264 -60 417 15 75 36 169 125 202 189 68 133 66 310 -6 451 -32 64
-118 151 -180 182 -84 43 -208 57 -326 37z"/>
<path d="M4547 2594 c-218 -53 -337 -213 -337 -455 0 -109 19 -172 75 -248
137 -186 385 -255 588 -163 76 35 176 125 216 195 75 133 81 282 16 413 -41
84 -127 183 -191 220 -90 53 -241 69 -367 38z"/>
<path d="M5197 2553 c82 -127 122 -222 138 -325 l6 -38 244 0 244 0 11 43 c22
88 62 186 114 280 l54 97 -424 0 -425 0 38 -57z"/>
<path d="M6362 2590 c-186 -49 -283 -158 -320 -358 -18 -103 -8 -202 29 -279
36 -75 143 -177 230 -218 290 -137 619 36 670 352 20 126 -15 242 -109 358
-120 149 -294 199 -500 145z"/>
<path d="M7001 2588 c7 -13 25 -42 41 -65 45 -67 96 -181 108 -242 6 -31 13
-65 15 -76 4 -19 10 -20 187 -14 117 4 208 12 252 23 89 21 269 76 277 85 4 3
10 75 14 159 l7 152 -456 0 -457 0 12 -22z"/>
<path d="M8144 2483 c4 -71 9 -135 12 -144 7 -26 34 -29 240 -29 179 0 193 1
218 21 14 11 26 26 26 33 0 7 27 57 60 112 33 54 60 104 60 110 0 20 -57 24
-343 24 l-280 0 7 -127z"/>
<path d="M9155 2605 c-5 -2 -35 -11 -65 -20 -224 -69 -346 -325 -271 -565 54
-171 206 -302 384 -332 308 -51 603 269 523 567 -60 226 -234 356 -470 354
-50 0 -95 -2 -101 -4z"/>
<path d="M9752 2603 c2 -5 24 -39 49 -78 26 -38 59 -103 75 -142 l28 -73 571
0 571 0 28 65 c16 36 45 92 66 124 63 97 63 97 -26 105 -108 9 -1366 8 -1362
-1z"/>
<path d="M11563 2596 c-29 -7 -82 -27 -117 -45 -170 -84 -262 -299 -211 -496
58 -222 238 -368 455 -368 226 0 427 167 472 391 25 125 -28 281 -133 396 -91
100 -180 136 -329 135 -47 0 -109 -6 -137 -13z"/>
<path d="M12223 2532 c29 -43 65 -110 81 -150 l28 -72 234 0 234 0 0 150 0
150 -315 0 -314 0 52 -78z"/>
</g>
</svg>
