<?xml version="1.0" standalone="no"?>
<!DOCTYPE svg PUBLIC "-//W3C//DTD SVG 20010904//EN"
 "http://www.w3.org/TR/2001/REC-SVG-20010904/DTD/svg10.dtd">
<svg version="1.0" xmlns="http://www.w3.org/2000/svg"
 width="1500.000000pt" height="625.000000pt" viewBox="0 0 1500.000000 625.000000"
 preserveAspectRatio="xMidYMid meet">

<g transform="translate(0.000000,625.000000) scale(0.100000,-0.100000)"
fill="#000000" stroke="none">
<path d="M2217 5198 c-9 -18 -32 -60 -51 -93 -34 -58 -35 -63 -36 -167 l0
-108 -27 -6 c-16 -3 -34 -7 -40 -10 -18 -5 -19 -1354 -2 -1371 7 -7 25 -9 40
-6 l29 6 0 -97 0 -96 -34 0 c-30 0 -43 9 -103 77 -37 42 -89 99 -115 127 l-48
50 0 390 c0 356 -1 389 -16 374 -13 -13 -14 -21 -4 -55 9 -30 9 -45 1 -61 -7
-14 -11 -121 -11 -326 l0 -306 -105 0 -105 0 0 256 c0 167 -3 253 -10 249 -6
-4 -10 -100 -10 -256 l0 -249 -105 0 -106 0 -57 -48 c-76 -64 -112 -94 -131
-112 -9 -9 -45 -40 -81 -70 -36 -30 -66 -58 -68 -62 -2 -5 -39 -8 -83 -8 l-79
0 0 54 c0 30 -4 58 -10 61 -6 4 -10 -16 -10 -53 l0 -60 -90 -4 c-67 -2 -93 -7
-100 -18 -12 -18 -13 -370 -2 -388 7 -9 61 -12 237 -10 l229 3 17 80 c23 110
42 149 103 210 60 60 95 81 173 101 142 37 284 -8 381 -122 59 -69 68 -94 98
-250 4 -20 10 -21 221 -27 120 -4 289 -10 376 -13 l157 -7 0 35 c0 38 29 138
54 186 40 77 134 148 232 175 76 21 125 21 195 1 69 -21 101 -39 160 -92 60
-55 99 -132 113 -225 l11 -72 115 0 115 0 3 25 c6 64 27 139 49 180 28 51 98
127 125 136 17 5 26 34 11 34 -47 0 -193 -178 -193 -234 0 -8 -5 -38 -11 -66
-10 -47 -13 -51 -37 -48 -26 3 -27 5 -24 53 3 46 37 164 51 175 3 3 18 23 33
45 15 22 44 54 65 70 20 17 49 41 63 55 14 13 29 23 34 22 6 -2 19 1 30 7 12
5 29 11 38 13 12 2 15 7 9 17 -8 12 -16 11 -55 -5 -25 -10 -46 -22 -46 -26 0
-5 -7 -8 -15 -8 -18 0 -20 48 -3 85 11 24 15 25 90 25 l78 0 0 65 0 65 58 -1
c32 -1 69 2 83 7 14 6 -169 11 -471 14 l-495 5 -3 94 -3 94 620 -7 c457 -5
626 -4 642 4 15 9 24 9 32 1 17 -17 97 -14 97 4 0 13 -77 15 -632 15 -348 0
-662 3 -698 6 -36 3 -71 1 -78 -4 -9 -6 -11 -48 -6 -185 l7 -177 82 0 c54 0
86 -4 92 -12 12 -17 32 -86 26 -91 -2 -3 -23 4 -46 16 -132 63 -290 63 -424
-1 -51 -24 -54 -24 -230 -18 -98 3 -213 9 -255 12 l-78 6 0 89 c0 91 0 92 43
92 16 0 17 39 17 697 l0 697 -30 -5 -30 -4 0 96 c0 100 9 128 78 234 13 21 13
24 -4 37 -10 8 -24 15 -30 15 -6 0 -17 7 -24 15 -19 23 -35 18 -53 -17z m82
-28 c7 0 2 -16 -14 -42 -14 -24 -33 -58 -41 -75 -17 -35 -33 -40 -63 -21 -19
11 -18 14 11 67 56 102 58 104 78 86 9 -8 22 -15 29 -15z m-104 -172 c24 -11
25 -15 25 -90 l0 -79 -32 3 -33 3 -3 74 c-3 70 1 101 12 101 3 0 17 -5 31 -12z
m93 -870 l2 -668 -105 0 -105 0 0 663 c0 365 3 667 7 671 4 4 50 5 103 4 l95
-3 3 -667z m-406 -716 c37 -42 91 -102 120 -133 l53 -56 324 -7 c178 -4 327
-9 331 -11 5 -3 -15 -29 -44 -59 -75 -79 -134 -213 -136 -308 0 -15 -3 -29 -7
-31 -5 -2 -102 2 -218 9 -115 7 -230 13 -256 13 l-45 1 -13 77 c-18 106 -62
193 -138 270 -35 35 -73 68 -85 73 -13 6 -30 14 -38 18 -49 28 -71 35 -144 47
-65 10 -98 10 -163 1 -45 -7 -88 -17 -95 -23 -7 -6 -25 -13 -40 -17 -16 -3
-28 -11 -28 -16 0 -6 -7 -10 -15 -10 -8 0 -46 -30 -84 -67 -94 -93 -149 -217
-151 -340 0 -10 -41 -13 -170 -13 l-170 0 0 75 0 75 55 0 55 0 0 60 0 60 -55
0 -55 0 0 45 0 45 171 0 172 0 56 47 c31 26 67 58 81 70 82 74 110 98 153 130
26 21 47 41 47 45 0 4 105 8 233 8 l232 -1 67 -77z m2018 3 l0 -55 -397 2
-398 3 -3 39 c-6 71 -34 66 403 66 l395 0 0 -55z m-1671 -75 l2 -90 -35 0 -36
0 0 90 0 90 33 0 33 0 3 -90z m1503 -11 c2 -6 -1 -31 -6 -55 l-11 -44 -196 0
c-178 0 -198 2 -204 18 -15 37 -24 75 -20 83 9 13 433 11 437 -2z m-2140 -40
c99 -19 200 -75 264 -147 59 -64 114 -199 114 -276 0 -33 -2 -36 -29 -36 -33
0 -36 6 -47 85 -15 104 -94 212 -199 270 -173 95 -395 48 -513 -109 -47 -62
-68 -114 -77 -189 -7 -55 -8 -57 -37 -57 l-31 0 7 71 c5 51 17 90 39 133 33
63 141 186 164 186 7 0 13 4 13 9 0 4 21 17 48 27 107 42 190 52 284 33z
m1532 -25 c200 -52 342 -204 361 -388 l7 -67 -33 3 c-33 3 -34 4 -40 58 -13
120 -106 248 -220 301 -118 57 -266 53 -369 -10 -19 -11 -41 -24 -49 -27 -17
-9 -76 -68 -85 -85 -3 -8 -16 -30 -27 -49 -23 -37 -46 -107 -51 -154 -3 -32
-40 -54 -56 -33 -24 30 48 246 94 283 8 6 14 14 14 18 0 3 9 15 20 26 11 11
23 20 26 20 4 0 12 6 18 14 19 24 109 68 176 87 83 22 139 23 214 3z m576 -72
c0 -5 -10 -17 -22 -29 -63 -56 -121 -157 -138 -239 -23 -112 -24 -114 -31 -44
-10 107 -57 201 -138 280 l-41 40 185 0 c102 0 185 -4 185 -8z m-2950 -156 c0
-32 -1 -33 -37 -32 -35 1 -38 3 -41 34 -3 31 -2 32 37 32 40 0 41 -1 41 -34z"/>
<path d="M1548 4743 c-9 -21 -20 -51 -24 -68 l-9 -30 -145 -6 c-80 -4 -243 -7
-362 -8 l-217 -1 -6 -37 c-3 -21 -12 -67 -20 -103 -7 -36 -21 -101 -30 -145
-9 -44 -22 -109 -30 -145 -7 -36 -21 -101 -29 -145 -9 -44 -21 -99 -26 -123
-13 -56 -13 -389 0 -397 6 -3 10 5 10 19 0 23 4 25 53 28 l52 3 3 58 3 57 -49
0 c-60 0 -62 4 -62 110 0 90 9 104 74 122 41 11 43 12 60 77 26 99 43 168 61
246 18 78 38 159 54 221 17 63 16 64 -44 64 -54 0 -55 0 -55 29 0 17 4 32 8
35 5 3 229 6 498 6 l489 2 1 -135 c1 -77 6 -142 12 -153 9 -14 11 22 12 149
l0 167 -44 0 -43 0 -23 70 -23 70 -67 0 -67 0 -15 -37z m140 -20 c31 -88 34
-83 -55 -83 -44 0 -82 2 -85 5 -5 5 3 32 27 103 3 7 23 12 52 12 47 0 49 -1
61 -37z m-813 -278 c-7 -33 -18 -80 -24 -105 -7 -25 -19 -71 -27 -102 -13 -54
-23 -93 -55 -221 -10 -41 -17 -50 -47 -62 -19 -8 -37 -15 -39 -15 -5 0 -1 24
23 135 8 39 22 104 30 145 8 41 22 104 29 140 8 36 17 84 20 107 6 41 8 42 48
45 23 2 45 1 49 -2 3 -3 0 -32 -7 -65z m-127 -802 c3 -33 3 -33 -42 -33 -44 0
-46 1 -46 29 0 33 11 41 55 38 26 -2 30 -6 33 -34z"/>
<path d="M11850 4705 c-7 -8 -18 -15 -26 -15 -7 0 -19 -6 -26 -12 -7 -7 -31
-22 -53 -33 -74 -37 -225 -127 -225 -134 0 -4 14 -21 30 -39 17 -18 30 -37 30
-43 0 -5 4 -9 8 -9 5 0 28 -27 52 -60 24 -33 47 -60 52 -60 4 0 8 -7 8 -15 0
-8 4 -15 8 -15 5 0 28 -27 52 -60 24 -33 47 -60 52 -60 4 0 8 -7 8 -15 0 -8 4
-15 8 -15 5 0 28 -27 52 -60 24 -33 47 -60 52 -60 4 0 8 -7 8 -15 0 -8 4 -15
8 -15 5 0 28 -27 52 -60 24 -33 47 -60 52 -60 4 0 8 -7 8 -15 0 -8 4 -15 8
-15 5 0 28 -27 52 -60 24 -33 47 -60 52 -60 4 0 8 -7 8 -15 0 -8 4 -15 8 -15
5 0 28 -27 52 -60 24 -33 47 -60 52 -60 4 0 8 -7 8 -15 0 -8 4 -15 8 -15 5 0
28 -27 52 -60 24 -33 47 -60 52 -60 4 0 8 -7 8 -15 0 -8 4 -15 8 -15 7 0 92
-109 115 -147 7 -11 -60 -13 -385 -13 l-393 0 -35 33 c-41 38 -145 90 -213
106 -63 15 -149 13 -219 -3 -65 -16 -138 -46 -138 -58 0 -4 -5 -8 -11 -8 -7 0
-31 -16 -55 -35 l-42 -35 -145 0 c-145 0 -145 0 -174 28 -77 76 -184 120 -309
129 -82 6 -128 -3 -229 -45 -41 -17 -138 -83 -150 -102 -4 -7 -811 -10 -2495
-10 l-2490 0 -2 243 -3 242 -268 2 c-229 2 -267 0 -267 -12 0 -13 38 -15 261
-15 l261 0 -4 -227 -4 -228 -167 -3 -166 -2 -3 137 -3 138 -182 3 c-158 2
-183 0 -183 -13 0 -13 25 -15 173 -15 l172 0 -5 -262 c-4 -204 -2 -267 8 -279
7 -9 36 -28 65 -42 l52 -27 2610 2 2610 3 6 55 c7 56 27 119 51 161 27 47 105
116 163 144 84 41 205 47 294 15 33 -13 61 -27 61 -31 0 -5 6 -9 14 -9 24 0
115 -107 141 -165 16 -38 24 -73 23 -104 -1 -40 -2 -42 -5 -11 -3 19 -9 39
-14 44 -5 6 -9 18 -9 27 0 34 -54 115 -109 163 -13 12 -29 26 -35 31 -36 33
-103 50 -196 49 -85 0 -100 -3 -145 -28 -284 -158 -269 -583 25 -711 65 -29
199 -28 260 2 61 29 123 84 162 144 30 47 67 158 68 204 0 19 7 20 132 20
l133 0 5 65 c3 36 12 76 19 90 8 14 18 32 23 40 4 8 11 22 15 30 12 25 76 85
121 114 29 18 61 28 95 31 29 2 41 2 27 -1 -36 -7 -120 -46 -120 -56 0 -4 -4
-8 -10 -8 -10 0 -68 -57 -87 -86 -28 -42 -46 -93 -58 -159 -16 -88 -5 -168 36
-250 30 -61 89 -135 108 -135 6 0 11 -4 11 -8 0 -5 24 -19 53 -32 76 -35 211
-35 281 0 72 36 140 106 177 180 31 62 33 70 33 175 -1 104 -2 113 -35 179
-18 37 -39 70 -46 73 -7 3 -13 10 -13 17 -1 22 -110 91 -170 107 -32 8 -31 8
12 4 134 -13 278 -193 278 -346 l0 -39 78 0 c42 0 228 -3 412 -7 284 -5 341
-4 370 9 45 19 97 38 135 48 54 15 242 83 275 100 12 6 14 26 12 111 l-4 104
-101 135 c-55 74 -106 140 -114 146 -7 6 -13 16 -13 23 0 6 -3 11 -7 11 -5 0
-21 20 -36 45 -16 25 -33 45 -38 45 -5 0 -9 7 -9 15 0 8 -3 15 -7 15 -5 0 -21
20 -38 45 -16 24 -33 45 -37 45 -5 0 -8 7 -8 15 0 8 -4 15 -9 15 -5 0 -19 16
-31 35 -12 20 -27 41 -34 48 -6 6 -26 31 -45 55 -27 35 -38 42 -56 38 -18 -5
-28 2 -46 29 -13 19 -27 35 -30 35 -3 0 -25 27 -49 60 -24 33 -47 60 -52 60
-4 0 -8 7 -8 15 0 8 -4 15 -8 15 -5 0 -28 27 -52 60 -24 33 -47 60 -52 60 -4
0 -8 7 -8 15 0 8 -4 15 -8 15 -5 0 -28 27 -52 60 -24 33 -47 60 -52 60 -4 0
-8 6 -8 14 0 8 -7 17 -16 20 -14 5 -16 16 -10 61 l6 55 -73 75 c-76 77 -95 86
-117 60z m102 -83 l66 -68 -14 -50 c-7 -27 -23 -80 -34 -119 -32 -108 -35
-134 -18 -148 8 -7 44 -48 79 -92 35 -44 72 -89 82 -100 11 -11 33 -39 50 -62
17 -24 34 -43 39 -43 4 0 8 -7 8 -15 0 -8 3 -15 8 -15 4 0 27 -26 52 -57 46
-59 59 -75 105 -128 14 -16 40 -49 57 -72 17 -24 35 -43 40 -43 4 0 8 -7 8
-15 0 -8 3 -15 8 -15 4 0 27 -26 52 -57 46 -59 59 -75 105 -128 14 -16 40 -49
57 -72 17 -24 35 -43 40 -43 4 0 8 -4 8 -10 0 -5 10 -20 23 -32 l22 -23 -99
-3 c-114 -3 -100 -11 -196 113 -30 39 -57 72 -60 75 -3 3 -30 37 -60 75 -30
39 -57 72 -60 75 -3 3 -30 37 -60 75 -30 39 -57 72 -60 75 -3 3 -30 37 -60 75
-30 39 -57 72 -60 75 -3 3 -30 36 -60 75 -30 38 -63 79 -72 90 -9 11 -48 61
-87 110 -40 50 -77 97 -84 105 -6 8 -37 47 -67 85 -30 39 -57 72 -60 75 -24
22 -89 114 -85 120 3 5 36 26 73 46 37 21 85 49 107 62 22 12 54 29 72 37 17
8 34 19 38 25 13 21 33 8 97 -58z m158 -292 c3 -3 41 -50 85 -105 44 -55 82
-102 85 -105 3 -3 30 -36 60 -75 30 -38 67 -83 82 -99 24 -26 26 -32 14 -45
-17 -17 -14 -20 -105 94 -35 44 -70 85 -78 91 -7 6 -13 16 -13 23 0 6 -4 11
-8 11 -5 0 -28 27 -52 60 -24 33 -47 60 -52 60 -4 0 -8 7 -8 15 0 8 -3 15 -8
15 -4 0 -27 26 -52 58 -24 31 -48 59 -52 60 -12 5 -10 26 3 39 9 9 22 -1 53
-40 22 -29 43 -54 46 -57z m-100 21 c0 -4 10 -19 23 -33 12 -13 58 -69 102
-124 44 -54 88 -108 98 -119 11 -11 33 -39 50 -62 17 -24 34 -43 39 -43 4 0 8
-7 8 -15 0 -8 3 -15 8 -15 4 0 19 -15 34 -34 24 -30 26 -37 13 -49 -13 -13
-11 -20 13 -54 66 -94 96 -133 104 -133 4 0 8 -7 8 -15 0 -8 4 -15 8 -15 5 0
28 -27 52 -60 24 -33 47 -60 52 -60 4 0 8 -5 8 -11 0 -6 6 -16 13 -23 6 -7 46
-57 87 -111 41 -53 87 -111 102 -128 15 -17 26 -33 23 -35 -12 -12 -48 20
-110 99 -38 49 -73 89 -77 89 -5 0 -8 7 -8 15 0 8 -4 15 -8 15 -5 0 -24 21
-43 47 -18 26 -40 55 -49 63 -8 9 -44 52 -79 95 -35 44 -70 85 -78 91 -7 6
-13 16 -13 23 0 6 -4 11 -8 11 -5 0 -24 21 -43 47 -18 26 -40 55 -49 63 -8 9
-44 52 -79 95 -35 44 -70 85 -78 91 -7 6 -13 16 -13 23 0 6 -4 11 -8 11 -5 0
-23 21 -41 46 -18 25 -48 62 -67 82 -36 39 -42 72 -22 117 11 24 28 34 28 16z
m640 -636 c80 -107 148 -195 153 -195 4 0 7 -7 7 -15 0 -8 3 -15 8 -15 4 0 21
-21 37 -45 17 -25 33 -45 38 -45 4 0 7 -7 7 -15 0 -8 4 -15 9 -15 5 0 22 -20
38 -45 15 -25 31 -45 36 -45 4 0 7 -6 7 -14 0 -8 7 -16 15 -20 8 -3 15 -13 15
-22 0 -14 -7 -16 -46 -10 -26 3 -57 6 -69 6 -16 0 -35 18 -66 60 -24 33 -47
60 -51 60 -5 0 -8 7 -8 15 0 8 -4 15 -8 15 -5 0 -28 27 -52 60 -24 33 -47 60
-52 60 -4 0 -8 5 -8 11 0 6 -6 16 -12 23 -7 7 -47 57 -88 111 -41 54 -83 106
-92 117 -10 10 -18 23 -18 28 0 6 -4 10 -10 10 -5 0 -14 10 -21 22 -10 19 -7
26 27 59 22 20 44 37 49 38 6 0 75 -87 155 -194z m-2107 -395 c68 -24 86 -34
146 -78 51 -37 128 -134 138 -172 3 -14 11 -36 18 -50 7 -14 14 -52 16 -85 l4
-59 -32 -3 c-31 -3 -33 -1 -33 30 0 41 -38 167 -51 167 -5 0 -9 7 -9 15 0 8
-24 38 -52 68 -132 134 -331 165 -489 76 -37 -22 -143 -131 -159 -164 -25 -54
-39 -99 -46 -142 -6 -39 -9 -43 -35 -43 -25 0 -29 4 -29 27 0 33 26 123 53
183 26 56 140 172 192 196 104 46 131 52 220 53 67 1 106 -4 148 -19z m966 4
c36 -9 93 -30 126 -48 57 -29 143 -103 158 -136 4 -8 17 -30 28 -49 28 -47 59
-147 59 -193 0 -35 -2 -38 -30 -38 -24 0 -31 5 -35 28 -23 116 -58 212 -77
212 -4 0 -8 4 -8 10 0 12 -68 80 -80 80 -6 0 -10 3 -10 8 0 8 -75 44 -129 61
-72 23 -212 7 -289 -33 -16 -8 -55 -39 -86 -67 -64 -58 -116 -154 -124 -229
-5 -47 -15 -60 -44 -60 -15 0 -18 9 -18 48 0 59 25 132 67 198 34 53 114 134
132 134 6 0 11 3 11 8 0 12 90 51 155 66 80 19 116 19 194 0z m-66 -81 c-18
-2 -48 -2 -65 0 -18 2 -4 4 32 4 36 0 50 -2 33 -4z m-971 -44 c68 -15 102 -34
158 -90 53 -53 66 -74 91 -147 55 -159 -13 -344 -160 -437 -71 -44 -228 -47
-301 -4 -56 32 -121 105 -150 166 -27 56 -30 73 -30 158 0 85 3 102 30 159 49
102 130 172 229 195 51 13 73 13 133 0z m1010 -1 c95 -21 168 -80 223 -179 27
-51 29 -61 30 -169 0 -131 -14 -171 -85 -253 -77 -87 -183 -125 -292 -105
-183 33 -304 221 -270 418 24 142 116 249 247 286 54 16 83 16 147 2z m-1482
-24 c0 -6 -8 -22 -17 -35 -37 -50 -63 -123 -78 -216 l-7 -43 -2557 0 -2557 0
-49 31 -48 30 7 116 c3 63 8 118 10 122 2 3 1195 6 2650 6 1939 0 2646 -3
2646 -11z m1020 0 c0 -6 -8 -22 -17 -35 -44 -60 -83 -168 -83 -231 0 -29 -3
-36 -15 -32 -10 4 -15 20 -15 49 0 49 -26 130 -64 197 -14 26 -26 50 -26 55 0
4 49 8 110 8 74 0 110 -4 110 -11z m2018 7 c8 -1 12 -25 12 -84 l0 -84 -37
-16 c-21 -9 -112 -42 -203 -74 l-165 -58 -367 -3 -368 -2 0 28 c0 60 -55 224
-81 242 -4 3 -10 16 -14 30 l-6 25 608 -2 c334 0 614 -2 621 -2z"/>
<path d="M11847 4552 c-22 -24 -21 -65 1 -85 39 -35 92 -13 92 37 0 57 -58 87
-93 48z m67 -27 c9 -24 -4 -45 -29 -45 -25 0 -38 21 -29 45 4 8 16 15 29 15
13 0 25 -7 29 -15z"/>
<path d="M10345 3082 c-55 -23 -85 -44 -85 -59 0 -7 -4 -13 -10 -13 -18 0 -50
-92 -50 -147 0 -96 52 -177 136 -213 168 -72 326 82 284 278 -7 28 -16 52 -21
52 -5 0 -9 6 -9 13 0 21 -61 73 -108 91 -53 20 -86 20 -137 -2z m148 -29 c37
-22 67 -49 67 -63 0 -5 4 -10 10 -10 13 0 30 -67 30 -123 0 -90 -48 -159 -135
-192 -52 -20 -96 -13 -155 27 -99 68 -109 235 -20 329 46 49 145 64 203 32z"/>
<path d="M11350 3082 c-77 -37 -118 -88 -137 -167 -27 -115 30 -225 140 -273
125 -54 289 76 286 228 -1 83 -64 177 -141 210 -57 24 -101 25 -148 2z m143
-28 c74 -38 117 -108 117 -193 0 -89 -54 -163 -142 -196 -39 -14 -52 -15 -85
-5 -48 15 -103 51 -103 68 0 6 -4 12 -9 12 -13 0 -41 87 -41 125 0 141 148
247 263 189z"/>
<path d="M8427 3093 c-4 -3 -7 -30 -7 -60 l0 -53 140 0 140 0 0 48 c0 26 -5
53 -12 60 -13 13 -249 18 -261 5z m243 -58 l0 -35 -109 0 c-66 0 -112 4 -116
11 -4 5 -4 21 -1 35 6 24 8 24 116 24 l110 0 0 -35z"/>
<path d="M5557 3073 c-13 -12 -7 -90 7 -102 9 -8 55 -11 137 -9 l124 3 3 58 3
57 -134 0 c-73 0 -137 -3 -140 -7z m248 -48 l0 -30 -112 -3 -113 -3 0 36 0 36
113 -3 112 -3 0 -30z"/>
<path d="M972 4513 c-5 -16 -17 -57 -26 -93 -20 -75 -42 -156 -61 -220 -7 -25
-20 -74 -30 -110 -9 -36 -23 -85 -31 -110 -10 -35 -12 -77 -7 -182 3 -76 10
-138 15 -138 4 0 8 64 8 143 0 94 5 159 14 188 17 53 40 135 59 209 35 134 50
187 63 223 8 20 14 49 14 62 l0 25 289 0 289 0 7 -31 c9 -41 28 -23 23 22 l-3
34 -306 3 -306 2 -11 -27z"/>
<path d="M1026 4468 c-2 -7 -12 -42 -21 -78 -10 -36 -23 -85 -30 -110 -7 -25
-20 -72 -29 -105 -9 -33 -23 -82 -30 -110 -8 -27 -17 -67 -21 -87 l-6 -38 94
0 c75 0 96 3 101 15 4 13 -8 15 -80 15 l-84 0 6 28 c3 15 12 47 19 72 7 25 20
73 29 108 9 34 23 90 32 125 9 34 23 81 32 105 l15 42 228 0 229 0 -4 -79 c-3
-62 -1 -81 10 -85 11 -4 14 12 14 94 l0 100 -250 0 c-192 0 -251 -3 -254 -12z"/>
<path d="M1577 4387 c-10 -27 -9 -85 3 -92 16 -10 22 20 13 67 -7 32 -11 38
-16 25z"/>
<path d="M1577 4246 c-9 -24 -7 -136 2 -161 12 -29 25 123 13 154 -7 21 -10
22 -15 7z"/>
<path d="M1514 4214 c-4 -14 -2 -40 4 -57 9 -30 10 -28 11 26 1 61 -5 73 -15
31z"/>
<path d="M1500 4071 c0 -5 7 -24 15 -42 l14 -34 1 43 c0 31 -4 42 -15 42 -8 0
-15 -4 -15 -9z"/>
<path d="M1395 3993 c-120 -8 -84 -31 40 -25 79 4 80 4 46 18 -18 8 -34 13
-35 12 0 -1 -23 -3 -51 -5z"/>
<path d="M1216 3971 c-7 -11 31 -22 50 -14 8 3 11 9 8 14 -7 12 -51 12 -58 0z"/>
<path d="M1138 3963 c6 -2 18 -2 25 0 6 3 1 5 -13 5 -14 0 -19 -2 -12 -5z"/>
<path d="M1327 3898 c-2 -7 -2 -21 1 -30 4 -15 17 -18 88 -18 67 0 84 3 84 15
0 11 -14 13 -77 10 -50 -3 -71 -1 -58 5 11 5 34 9 52 9 17 1 35 6 38 11 4 6
-18 10 -59 10 -42 0 -66 -4 -69 -12z"/>
<path d="M823 3578 c7 -59 27 -90 27 -41 0 46 -11 93 -23 93 -6 0 -7 -19 -4
-52z"/>
<path d="M751 3529 c-1 -19 -21 -29 -57 -29 -14 0 -22 -4 -19 -10 3 -5 19 -10
35 -10 17 0 33 -7 39 -17 8 -15 10 -14 16 10 4 16 3 38 -3 50 -8 16 -11 18
-11 6z"/>
<path d="M836 3474 c-3 -9 -6 -30 -6 -47 1 -28 2 -29 11 -14 14 24 19 66 9 72
-4 3 -11 -2 -14 -11z"/>
<path d="M4110 3477 c0 -7 9 -13 20 -14 11 -1 20 4 20 13 0 8 -9 14 -20 14
-11 0 -20 -6 -20 -13z"/>
<path d="M4194 3475 c25 -19 36 -19 36 0 0 10 -10 15 -27 15 -27 -1 -27 -1 -9
-15z"/>
<path d="M4268 3478 c8 -8 17 -8 34 0 22 10 21 11 -11 11 -27 1 -32 -2 -23
-11z"/>
<path d="M750 3410 c0 -5 -8 -10 -17 -10 -16 0 -16 -1 -1 -17 14 -13 20 -14
32 -3 20 16 21 40 1 40 -8 0 -15 -4 -15 -10z"/>
<path d="M647 3403 c-10 -10 -8 -136 2 -152 14 -21 25 47 17 105 -6 50 -9 58
-19 47z"/>
<path d="M3918 3289 c-23 -15 -3 -18 75 -12 43 3 75 9 71 12 -9 9 -131 9 -146
0z"/>
<path d="M4108 3277 c8 -9 28 -19 45 -22 149 -29 293 -189 326 -361 14 -73 8
-97 -23 -88 -32 10 -37 17 -45 75 -20 142 -133 269 -281 315 -52 16 -160 19
-160 4 0 -5 22 -10 48 -10 113 0 242 -70 304 -164 53 -82 58 -93 65 -159 3
-34 10 -68 16 -74 5 -7 31 -13 57 -13 38 0 58 7 108 41 l62 42 0 177 0 177
-112 6 c-62 4 -140 7 -174 7 -43 0 -74 7 -110 24 -27 13 -69 27 -94 31 -40 7
-43 6 -32 -8z m492 -242 c0 -149 -2 -166 -17 -172 -10 -4 -27 -15 -37 -25 -26
-24 -31 -16 -44 64 -16 102 -87 227 -157 277 l-30 21 143 0 142 0 0 -165z"/>
<path d="M3904 3190 c-25 -10 -41 -30 -24 -30 13 0 70 29 70 35 0 7 -22 5 -46
-5z"/>
<path d="M1420 3172 c-99 -31 -165 -80 -216 -162 -29 -48 -64 -163 -64 -214 0
-60 61 -236 82 -236 4 0 8 -5 8 -11 0 -18 74 -79 130 -106 69 -34 189 -44 241
-20 19 9 44 18 57 22 12 3 22 11 22 16 0 5 5 9 11 9 16 0 96 85 116 123 54
102 69 233 37 319 -23 61 -58 128 -66 128 -5 0 -8 5 -8 10 0 6 -9 19 -20 30
-11 11 -24 20 -30 20 -5 0 -10 4 -10 9 0 16 -65 48 -132 65 -77 19 -87 19
-158 -2z m176 -29 c27 -9 63 -26 79 -37 33 -23 95 -87 95 -98 0 -4 6 -13 13
-20 45 -48 63 -230 30 -318 -57 -152 -163 -230 -313 -230 -65 0 -88 5 -132 27
-159 80 -236 274 -177 448 62 184 240 284 405 228z"/>
<path d="M1416 3022 c-69 -40 -126 -134 -126 -208 0 -36 30 -115 57 -151 43
-56 88 -77 164 -77 74 0 103 13 157 72 97 107 68 284 -60 365 -37 23 -152 23
-192 -1z m202 -39 c52 -43 77 -96 77 -168 0 -112 -62 -191 -158 -202 -46 -6
-127 12 -127 27 0 6 -5 10 -11 10 -30 0 -79 103 -79 165 0 79 51 158 124 192
49 22 131 10 174 -24z"/>
<path d="M2901 3141 c-71 -29 -156 -112 -194 -189 -30 -63 -32 -73 -32 -177 0
-105 2 -113 33 -174 142 -275 479 -281 630 -12 41 72 56 210 32 289 -17 56
-52 132 -62 132 -4 0 -8 4 -8 10 0 10 -57 68 -86 87 -10 7 -39 22 -63 33 -57
26 -186 27 -250 1z m256 -32 c49 -22 124 -93 150 -142 88 -164 60 -344 -72
-465 -41 -37 -71 -55 -121 -71 -81 -25 -97 -26 -165 -4 -72 22 -148 74 -179
120 -14 21 -27 40 -30 43 -20 20 -34 89 -38 180 -3 90 0 111 18 150 54 118
132 186 240 211 51 11 148 1 197 -22z"/>
<path d="M2962 3013 c-150 -53 -192 -269 -76 -387 107 -107 260 -78 338 64 27
47 27 174 0 216 -32 50 -81 93 -126 109 -53 18 -81 18 -136 -2z m139 -28 c71
-31 107 -81 115 -162 6 -60 -9 -143 -26 -143 -6 0 -10 -4 -10 -10 0 -14 -30
-41 -67 -62 -41 -23 -125 -24 -161 -1 -34 22 -63 51 -85 85 -25 40 -23 156 3
208 43 83 147 122 231 85z"/>
<path d="M3902 3143 c-23 -11 -29 -18 -21 -24 7 -4 22 -3 33 3 11 6 57 11 102
12 67 0 92 -5 133 -24 28 -13 51 -27 51 -32 0 -4 5 -8 10 -8 14 0 56 -45 85
-90 58 -92 73 -234 35 -331 -47 -119 -127 -192 -243 -224 -65 -17 -69 -17
-134 0 -118 32 -197 105 -242 223 -38 99 -24 240 34 332 25 38 70 90 80 90 8
0 35 27 35 34 0 16 -33 3 -64 -24 -79 -70 -136 -198 -136 -307 0 -61 29 -155
65 -215 83 -133 244 -197 386 -154 123 38 207 124 250 258 35 110 17 235 -48
335 -74 113 -165 163 -295 163 -56 0 -94 -6 -116 -17z"/>
<path d="M3962 3017 c-83 -30 -152 -132 -152 -223 0 -54 31 -127 73 -168 100
-101 240 -82 323 43 26 40 29 53 29 125 0 63 -5 89 -20 116 -29 50 -73 87
-124 105 -52 18 -83 18 -129 2z m135 -29 c84 -36 138 -152 113 -245 -27 -97
-95 -153 -187 -153 -171 0 -248 237 -117 361 50 47 131 63 191 37z"/>
<path d="M0 500 l0 -500 7500 0 7500 0 0 500 0 500 -7500 0 -7500 0 0 -500z
m860 144 l0 -56 34 6 c41 8 92 -11 121 -44 17 -19 21 -39 24 -141 l3 -119 -36
0 -36 0 0 104 c0 121 -9 139 -69 134 l-36 -3 -3 -117 -3 -118 -34 0 -35 0 0
205 0 205 35 0 35 0 0 -56z m630 -54 l49 0 3 37 c2 30 9 41 36 56 l32 19 0
-56 0 -56 41 0 c39 0 40 -1 37 -32 -3 -30 -6 -33 -40 -36 l-38 -3 0 -66 c0
-71 16 -103 52 -103 13 0 18 -8 18 -30 0 -28 -3 -30 -36 -30 -75 0 -104 44
-104 160 l0 70 -50 0 -50 0 0 -69 c0 -74 14 -101 51 -101 14 0 19 -7 19 -30 0
-28 -2 -30 -39 -30 -28 0 -49 7 -68 24 -26 23 -28 30 -31 115 -3 70 -7 91 -18
91 -9 0 -14 12 -14 35 0 24 5 35 15 35 11 0 15 11 15 38 0 33 4 40 33 54 l32
15 3 -53 3 -54 49 0z m1010 55 l0 -55 35 0 c33 0 35 -2 35 -35 0 -33 -2 -35
-35 -35 l-35 0 0 -76 c0 -75 0 -76 30 -87 23 -9 30 -17 30 -39 0 -26 -3 -28
-37 -28 -71 1 -93 37 -93 148 0 71 -2 80 -20 85 -15 4 -20 14 -20 36 0 24 4
31 20 31 16 0 20 7 20 38 0 30 5 40 28 54 15 9 30 17 35 17 4 1 7 -24 7 -54z
m710 -56 l0 -111 47 56 c45 53 50 56 92 56 l45 0 -35 -37 c-19 -21 -47 -52
-62 -69 l-28 -31 61 -78 c33 -43 60 -79 60 -81 0 -2 -17 -4 -39 -4 -35 0 -42
5 -80 55 -23 31 -46 53 -52 50 -5 -4 -9 -28 -9 -56 l0 -49 -35 0 -35 0 0 205
0 205 35 0 35 0 0 -111z m9720 31 c0 -33 -4 -60 -10 -60 -6 0 -10 27 -10 60 0
33 4 60 10 60 6 0 10 -27 10 -60z m61 13 l15 -48 15 44 c22 68 39 65 39 -8 0
-65 -19 -87 -21 -23 l-1 37 -12 -35 c-7 -19 -16 -35 -21 -35 -5 0 -14 16 -21
35 l-12 35 -1 -37 c-1 -59 -21 -44 -21 15 0 83 19 91 41 20z m153 -17 c19 -58
19 -56 6 -56 -5 0 -10 7 -10 15 0 9 -9 15 -25 15 -16 0 -25 -6 -25 -15 0 -8
-4 -15 -10 -15 -5 0 -10 2 -10 4 0 3 21 65 35 105 8 20 20 4 39 -53z m90 58
c28 -11 17 -24 -15 -17 l-30 6 3 -44 c2 -36 7 -44 23 -44 25 0 32 32 8 38 -14
4 -13 5 5 6 20 1 23 -3 20 -26 -2 -20 -9 -29 -26 -31 -34 -5 -52 15 -52 57 0
52 22 71 64 55z m101 -4 c-3 -5 -15 -10 -26 -10 -10 0 -19 -7 -19 -15 0 -8 9
-15 20 -15 11 0 20 -4 20 -10 0 -5 -9 -10 -20 -10 -33 0 -26 -38 8 -43 22 -3
20 -4 -10 -6 l-38 -1 0 53 c0 30 3 57 7 60 11 11 65 8 58 -3z m62 -82 c-2 -18
-4 -4 -4 32 0 36 2 50 4 33 2 -18 2 -48 0 -65z m97 76 c19 -18 21 -75 4 -92
-7 -7 -25 -12 -40 -12 -28 0 -28 1 -28 60 0 57 1 60 24 60 14 0 32 -7 40 -16z
m155 -3 c8 -15 5 -27 -14 -54 l-24 -36 27 -4 c20 -3 18 -4 -11 -6 l-39 -1 31
42 c34 45 28 74 -13 63 -17 -5 -18 -4 -6 4 22 16 38 13 49 -8z m89 7 c19 -19
15 -97 -4 -105 -25 -10 -49 11 -52 45 -6 55 27 89 56 60z m178 4 c7 -4 11 -29
10 -57 -1 -50 -1 -50 -36 -51 l-35 -2 33 5 c39 5 47 43 10 44 l-23 0 23 11
c33 16 24 44 -13 41 -22 -2 -26 0 -15 7 18 12 31 12 46 2z m371 -4 c5 -7 9
-33 8 -58 0 -44 -1 -45 -35 -47 -34 -1 -34 -1 -5 5 37 9 48 42 13 42 l-23 0
24 19 c30 23 19 45 -18 37 -19 -5 -22 -4 -11 4 20 13 36 13 47 -2z m97 -12 c8
-14 8 -20 -1 -23 -9 -3 -10 -9 -1 -22 16 -26 3 -51 -27 -51 -30 0 -43 24 -25
45 10 12 10 18 0 30 -10 12 -10 18 0 30 16 20 39 16 54 -9z m92 -1 c32 -49
-10 -119 -51 -85 -20 16 -19 75 1 94 21 22 31 20 50 -9z m-658 -42 l-2 -58 -3
52 c-3 44 -7 51 -21 47 -14 -5 -15 -4 -2 5 26 19 30 12 28 -46z m180 0 l-2
-58 -3 53 c-3 35 -8 50 -15 46 -7 -4 -8 -2 -4 4 16 27 26 9 24 -45z m90 0 l-2
-58 -3 53 c-3 35 -8 50 -15 46 -7 -4 -8 -2 -4 4 16 27 26 9 24 -45z m112 22
c0 -21 5 -35 13 -35 8 0 9 -3 1 -8 -6 -4 -14 -14 -17 -22 -4 -12 -6 -11 -6 3
-1 12 -9 17 -31 17 l-30 0 26 40 c33 49 44 50 44 5z m-663 -7 c-3 -8 -6 -5 -6
6 -1 11 2 17 5 13 3 -3 4 -12 1 -19z m-12795 -49 c14 -8 15 -14 7 -39 -9 -26
-13 -28 -35 -19 -38 14 -80 11 -95 -7 -11 -14 -11 -18 4 -29 10 -7 35 -15 57
-19 96 -15 119 -117 38 -166 -37 -22 -107 -26 -157 -9 -33 12 -34 13 -22 44 7
17 17 20 82 20 67 0 74 2 74 20 0 19 -16 27 -76 40 -48 9 -74 39 -74 83 0 47
24 78 69 91 33 10 100 5 128 -10z m1131 10 c51 -14 77 -57 77 -126 l0 -53 -85
0 c-76 0 -85 -2 -85 -19 0 -39 34 -48 105 -27 11 3 29 -1 40 -9 19 -15 19 -16
-8 -43 -24 -23 -35 -27 -88 -27 -56 0 -63 3 -90 33 -27 31 -29 37 -29 121 0
100 16 133 73 150 43 12 46 12 90 0z m265 -26 c3 -31 1 -33 -27 -33 -49 0 -61
-29 -61 -142 l0 -98 -30 0 -30 0 0 123 c0 115 2 125 23 145 28 27 65 42 97 39
20 -2 26 -8 28 -34z m182 26 c54 -11 56 -15 39 -53 -10 -21 -15 -23 -36 -15
-37 14 -79 11 -94 -7 -11 -14 -11 -18 4 -29 10 -7 35 -15 56 -19 52 -8 80 -33
87 -77 12 -74 -74 -125 -178 -105 -52 10 -61 19 -48 48 11 23 16 24 83 24 60
-1 72 2 75 16 4 19 -12 28 -86 48 -34 9 -46 18 -60 46 -16 34 -15 37 3 72 14
25 31 41 55 49 44 15 40 15 100 2z m712 1 c33 -10 78 -50 78 -70 0 -5 -13 -13
-29 -18 -23 -8 -31 -7 -45 9 -19 23 -59 25 -80 3 -19 -19 -22 -134 -4 -152 17
-17 68 -15 89 3 20 19 69 10 69 -12 0 -43 -85 -82 -153 -69 -58 11 -81 46 -85
131 -6 111 18 161 83 178 32 8 38 7 77 -3z m446 -16 c2 -11 -4 -26 -12 -33
-31 -26 -71 14 -45 45 17 21 53 14 57 -12z m-2338 -99 c0 -105 2 -115 20 -125
12 -6 33 -10 48 -8 l27 3 3 123 3 122 34 0 35 0 0 -143 0 -144 -39 -11 c-82
-25 -162 -8 -186 39 -11 20 -15 61 -15 144 l0 115 35 0 35 0 0 -115z m1610 81
c0 -34 -1 -35 -42 -38 -43 -3 -43 -3 -46 -45 -3 -42 -4 -43 -39 -43 l-35 0 4
57 c6 75 36 103 109 103 l49 0 0 -34z m95 -163 c-1 -75 -29 -103 -102 -103
l-54 0 3 33 c3 29 6 32 43 37 39 5 40 6 43 48 3 42 4 43 35 40 32 -3 32 -4 32
-55z m10647 -25 c-3 -61 -12 -60 -12 2 0 29 3 50 7 47 3 -4 6 -26 5 -49z m671
9 c14 11 17 12 10 2 -10 -12 -9 -20 4 -40 16 -24 16 -24 -3 -6 -12 9 -23 17
-27 17 -3 0 -8 -8 -10 -17 -3 -10 -4 7 -4 37 0 33 2 42 4 22 4 -34 5 -34 26
-15z m-501 -8 c-3 -20 0 -34 9 -40 11 -7 11 -9 -2 -9 -12 0 -18 11 -21 41 -4
41 -1 52 12 44 4 -2 5 -18 2 -36z m50 0 c-3 -20 0 -34 9 -40 11 -7 11 -9 -2
-9 -12 0 -18 11 -22 38 -4 39 -1 55 12 48 4 -3 6 -19 3 -37z m250 23 c-16 -5
-15 -59 1 -65 7 -3 5 -6 -5 -6 -15 -1 -18 7 -18 44 0 38 3 43 17 38 11 -4 12
-8 5 -11z m-520 -3 c-14 -5 -20 -13 -16 -20 4 -8 3 -9 -5 -5 -16 10 5 36 28
35 10 0 8 -3 -7 -10z m93 0 c11 -16 1 -19 -13 -3 -7 8 -8 14 -3 14 5 0 13 -5
16 -11z m253 -1 c7 -7 12 -16 12 -22 0 -5 -6 -2 -13 9 -17 22 -37 12 -37 -20
0 -17 7 -25 25 -28 23 -4 23 -4 -2 -3 -21 1 -29 7 -31 24 -3 22 13 52 27 52 4
0 12 -5 19 -12z m60 0 c-9 -7 -19 -26 -21 -43 -4 -27 -4 -27 -6 7 -1 34 7 45
33 47 6 1 2 -5 -6 -11z m50 5 c-24 -6 -23 -20 2 -33 30 -16 25 -40 -7 -39 -24
2 -25 2 -5 6 27 5 28 10 0 32 -23 19 -17 42 10 40 15 -1 15 -2 0 -6z m142 -8
c17 -20 4 -65 -18 -65 -22 0 -42 19 -42 40 0 35 38 51 60 25z m58 4 c-10 -5
-22 -17 -27 -27 -6 -9 -11 -12 -11 -5 0 15 28 43 43 43 7 0 4 -5 -5 -11z m246
5 c9 -3 16 -11 16 -16 0 -6 -6 -5 -15 2 -19 16 -35 4 -35 -26 0 -29 26 -33 47
-6 13 15 13 15 3 -6 -15 -31 -54 -26 -58 6 -2 13 2 30 8 38 14 16 13 16 34 8z
m134 -7 c6 -5 11 -23 11 -40 l-2 -32 -6 35 c-4 22 -12 35 -21 35 -9 0 -17 -13
-21 -35 -6 -35 -6 -35 -8 -4 0 16 -5 34 -10 40 -12 11 38 12 57 1z m-1390 -28
c-3 -8 -7 -3 -11 10 -4 17 -3 21 5 13 5 -5 8 -16 6 -23z m48 4 c7 -25 8 -25
15 -8 5 13 8 15 8 5 0 -8 -3 -21 -8 -29 -6 -10 -11 -6 -19 15 l-10 29 -11 -29
c-6 -16 -14 -27 -16 -24 -7 6 18 68 27 68 4 0 11 -12 14 -27z m51 10 c4 -10
11 -21 17 -25 8 -5 8 -10 0 -18 -9 -9 -13 -4 -19 17 -3 15 -12 31 -18 35 -9 6
-9 8 1 8 7 0 16 -8 19 -17z m70 -6 l12 28 -6 -30 c-8 -43 -21 -52 -29 -22 -3
15 -10 24 -15 21 -11 -6 -12 10 -1 20 4 5 11 -4 16 -18 l10 -26 13 27z m43
-17 c4 0 10 10 14 23 5 18 8 20 16 7 5 -8 10 -19 10 -25 0 -5 -4 -3 -9 4 -8
12 -11 9 -16 -12 -4 -15 -11 -27 -15 -27 -9 0 -20 37 -19 60 1 8 4 5 6 -7 2
-13 8 -23 13 -23z m330 5 c0 -32 -2 -35 -30 -35 -16 0 -30 4 -30 8 0 5 10 8
23 8 17 -1 23 5 25 27 5 38 12 34 12 -8z m763 3 c-8 -46 -13 -48 -13 -5 0 21
4 37 10 37 5 0 7 -14 3 -32z m-126 -29 c11 0 13 -3 5 -6 -17 -7 -42 15 -41 36
0 11 3 9 9 -6 5 -13 17 -23 27 -24z m-911 5 c-4 -9 -9 -15 -11 -12 -3 3 -3 13
1 22 4 9 9 15 11 12 3 -3 3 -13 -1 -22z m109 5 c0 -8 -11 -14 -28 -15 -26 -1
-26 -1 -2 3 23 4 24 7 13 20 -11 14 -11 15 2 11 8 -2 15 -11 15 -19z m641 -17
c-10 -2 -22 0 -28 6 -6 6 0 7 19 4 21 -5 23 -7 9 -10z"/>
<path d="M13107 630 c-3 -12 0 -20 8 -20 8 0 11 8 8 20 -3 11 -7 20 -8 20 -1
0 -5 -9 -8 -20z"/>
<path d="M13440 621 c0 -43 9 -55 34 -45 11 4 16 19 16 45 0 35 -3 39 -25 39
-22 0 -25 -4 -25 -39z"/>
<path d="M13701 656 c-7 -8 -11 -30 -9 -48 2 -25 8 -33 23 -33 17 0 20 7 20
44 0 47 -14 62 -34 37z"/>
<path d="M14335 660 c-4 -7 -3 -16 3 -22 14 -14 45 -2 40 15 -6 16 -34 21 -43
7z"/>
<path d="M14341 607 c-19 -19 -12 -37 14 -37 18 0 25 5 25 19 0 23 -23 34 -39
18z"/>
<path d="M14432 658 c-24 -24 -11 -88 18 -88 21 0 32 43 19 77 -10 26 -19 29
-37 11z"/>
<path d="M14167 630 c-18 -29 -18 -30 2 -30 17 0 21 6 21 30 0 17 -1 30 -3 30
-1 0 -11 -13 -20 -30z"/>
<path d="M1792 518 c-7 -7 -12 -22 -12 -35 0 -21 4 -23 50 -23 46 0 50 2 50
23 0 30 -18 47 -50 47 -14 0 -31 -5 -38 -12z"/>
<path d="M3461 564 c0 -11 3 -14 6 -6 3 7 2 16 -1 19 -3 4 -6 -2 -5 -13z"/>
<path d="M13994 376 c-9 -24 4 -48 23 -44 12 2 18 12 18 28 0 29 -32 41 -41
16z"/>
</g>
</svg>
