<?xml version="1.0" standalone="no"?>
<!DOCTYPE svg PUBLIC "-//W3C//DTD SVG 20010904//EN"
 "http://www.w3.org/TR/2001/REC-SVG-20010904/DTD/svg10.dtd">
<svg version="1.0" xmlns="http://www.w3.org/2000/svg"
 width="512.000000pt" height="512.000000pt" viewBox="0 0 512.000000 512.000000"
 preserveAspectRatio="xMidYMid meet">

<g transform="translate(0.000000,512.000000) scale(0.100000,-0.100000)"
fill="#000000" stroke="none">
<path d="M465 3825 l-25 -24 0 -706 0 -705 -115 0 c-110 0 -117 -1 -140 -25
l-25 -24 0 -231 0 -232 29 -29 c28 -28 33 -29 125 -29 l96 0 0 -38 c0 -21 7
-63 16 -93 55 -185 188 -318 373 -373 69 -20 199 -21 276 -1 198 52 355 225
387 428 l13 77 42 0 43 0 0 -38 c0 -98 67 -241 154 -328 101 -101 229 -154
371 -154 151 0 276 51 380 155 89 89 155 232 155 334 l0 31 493 -2 492 -3 6
-55 c8 -78 34 -149 78 -217 151 -233 457 -312 702 -182 133 71 244 229 270
384 l13 75 114 0 c112 0 114 0 143 30 l30 29 -3 433 -3 433 -287 515 c-158
283 -296 525 -307 538 l-19 22 -551 0 -550 0 -20 -26 c-21 -26 -21 -34 -21
-715 l0 -689 -60 0 -60 0 0 705 0 706 -25 24 -24 25 -1271 0 -1271 0 -24 -25z
m325 -390 c0 -205 3 -262 15 -284 28 -55 64 -54 192 5 l99 45 98 -45 c113 -53
146 -57 181 -21 l25 24 0 266 0 265 140 0 140 0 0 -650 0 -650 -540 0 -540 0
0 650 0 650 95 0 95 0 0 -255z m450 66 l0 -190 -65 30 c-35 16 -71 29 -79 29
-7 0 -39 -11 -70 -25 -31 -14 -61 -25 -66 -25 -6 0 -10 72 -10 185 l0 185 145
0 145 0 0 -189z m840 -75 c0 -251 1 -265 21 -290 30 -38 70 -34 184 20 l98 46
97 -46 c109 -51 143 -56 177 -24 23 21 23 22 23 290 l0 268 120 0 120 0 0
-650 0 -650 -540 0 -540 0 0 650 0 650 120 0 120 0 0 -264z m440 79 c0 -103
-4 -185 -9 -185 -5 0 -33 11 -63 25 -29 14 -60 25 -68 25 -8 0 -43 -13 -77
-30 l-63 -29 0 189 0 190 140 0 140 0 0 -185z m1822 10 l78 -140 -386 -5 -386
-5 -19 -24 c-18 -22 -19 -44 -19 -373 l0 -349 25 -24 24 -25 571 0 570 0 0
-295 0 -295 -74 0 -75 0 -37 78 c-67 139 -198 248 -345 287 -69 19 -199 19
-268 0 -160 -42 -313 -180 -360 -323 l-14 -42 -134 0 -133 0 0 840 0 840 452
-2 453 -3 77 -140z m299 -540 c71 -126 128 -233 129 -237 0 -5 -225 -8 -500
-8 l-500 0 0 240 0 240 372 -2 371 -3 128 -230z m-4101 -792 c-23 -27 -58 -83
-79 -125 l-36 -78 -52 0 -53 0 0 125 0 125 131 0 131 0 -42 -47z m1150 0 c-23
-27 -58 -83 -78 -125 l-37 -77 -62 -1 -62 0 -28 63 c-15 34 -49 90 -75 125
l-47 62 215 0 216 0 -42 -47z m1510 -78 l0 -125 -300 0 -300 0 -11 27 c-23 60
-46 101 -91 161 l-47 62 374 0 375 0 0 -125z m-2098 57 c134 -66 202 -178 203
-337 0 -82 -3 -96 -32 -156 -39 -79 -102 -140 -181 -177 -50 -24 -69 -27 -157
-27 -92 0 -105 3 -160 32 -71 37 -148 115 -178 181 -31 70 -35 199 -8 275 37
106 119 189 222 227 41 15 75 19 139 17 74 -2 95 -7 152 -35z m1140 6 c79 -37
142 -98 181 -177 29 -60 32 -74 32 -161 0 -87 -3 -101 -32 -161 -39 -79 -102
-140 -181 -177 -50 -24 -69 -27 -157 -27 -92 0 -105 3 -160 32 -71 36 -148
114 -178 181 -18 39 -22 65 -22 152 0 95 3 111 28 162 38 77 128 160 204 187
84 30 207 25 285 -11z m2048 0 c30 -14 74 -42 97 -62 53 -46 109 -156 119
-232 19 -154 -71 -315 -214 -382 -50 -24 -69 -27 -157 -27 -89 0 -106 3 -156
27 -150 74 -237 238 -209 395 25 145 118 255 253 299 68 22 200 13 267 -18z"/>
<path d="M864 2074 c-159 -56 -222 -264 -120 -396 118 -156 355 -137 440 34
70 141 2 310 -147 365 -44 16 -123 14 -173 -3z m163 -179 c34 -39 31 -98 -6
-136 -40 -40 -89 -40 -133 0 -27 24 -33 36 -33 71 0 35 6 47 34 72 29 26 39
30 75 25 27 -4 49 -15 63 -32z"/>
<path d="M2020 2081 c-121 -39 -197 -148 -188 -268 5 -68 27 -117 71 -163 153
-158 422 -64 444 155 11 102 -49 210 -141 257 -44 22 -145 33 -186 19z m113
-162 c28 -13 57 -58 57 -89 0 -89 -124 -134 -180 -63 -22 28 -26 82 -10 113
22 41 87 60 133 39z"/>
<path d="M4053 2077 c-232 -86 -232 -416 1 -493 123 -41 253 13 313 130 71
137 1 311 -146 361 -52 18 -123 18 -168 2z m149 -176 c27 -24 33 -36 33 -71 0
-35 -6 -47 -33 -71 -44 -40 -93 -40 -133 0 -62 62 -20 171 65 171 25 0 45 -9
68 -29z"/>
</g>
</svg>
