<?xml version="1.0" standalone="no"?>
<!DOCTYPE svg PUBLIC "-//W3C//DTD SVG 20010904//EN"
 "http://www.w3.org/TR/2001/REC-SVG-20010904/DTD/svg10.dtd">
<svg version="1.0" xmlns="http://www.w3.org/2000/svg"
 width="512.000000pt" height="512.000000pt" viewBox="0 0 512.000000 512.000000"
 preserveAspectRatio="xMidYMid meet">

<g transform="translate(0.000000,512.000000) scale(0.100000,-0.100000)"
fill="#000000" stroke="none">
<path d="M435 3791 c-55 -24 -58 -33 -230 -721 -116 -463 -165 -674 -161 -696
7 -35 48 -77 88 -90 l27 -9 -33 -52 c-104 -165 -112 -389 -19 -576 46 -91 160
-208 250 -255 234 -123 511 -82 700 103 l63 61 68 -66 c80 -77 162 -123 268
-150 298 -77 612 95 711 389 l22 66 568 5 c608 6 569 3 723 57 25 9 137 60
250 114 285 136 303 142 482 147 l147 4 3 -366 3 -366 33 -32 c28 -28 39 -33
82 -33 43 0 54 5 82 33 l33 32 3 365 3 364 204 3 205 3 32 33 33 32 0 290 0
290 -33 32 -32 33 -528 3 c-353 2 -548 -1 -592 -8 -102 -18 -199 -55 -420
-160 -113 -54 -234 -109 -270 -122 l-65 -23 -1407 -3 c-1259 -2 -1408 -1
-1408 13 0 8 63 268 141 578 97 389 139 571 135 593 -12 64 -102 111 -161 85z
m4405 -1311 l0 -120 -370 0 c-488 0 -484 1 -850 -175 -321 -154 -232 -140
-879 -140 l-553 0 -19 60 c-10 33 -34 85 -53 115 l-35 55 542 5 c483 5 548 8
597 23 113 37 190 69 340 143 85 42 182 87 215 100 122 51 140 52 618 53 l447
1 0 -120z m-4054 -234 c77 -35 145 -103 181 -180 24 -52 28 -74 28 -146 0 -72
-4 -94 -28 -146 -36 -77 -104 -145 -182 -181 -51 -24 -73 -28 -145 -28 -72 0
-94 4 -145 28 -78 36 -146 104 -182 181 -24 52 -28 74 -28 146 0 72 4 94 28
145 86 183 293 263 473 181z m960 0 c77 -35 145 -103 181 -180 24 -52 28 -74
28 -146 0 -72 -4 -94 -28 -146 -36 -77 -104 -145 -182 -181 -51 -24 -73 -28
-145 -28 -72 0 -94 4 -145 28 -78 36 -146 104 -182 181 -24 52 -28 74 -28 146
0 72 4 94 28 145 86 183 293 263 473 181z"/>
</g>
</svg>
