<svg width="479" height="552" viewBox="0 0 479 552" fill="none" xmlns="http://www.w3.org/2000/svg">
<path d="M463.21 181.463C465.895 188.418 468.708 195.329 471.191 202.356C471.998 204.638 471.941 207.225 472.421 210.697C469.558 209.242 467.485 208.189 464.979 206.915C468.171 213.941 471.162 220.525 474.153 227.108C473.667 227.456 473.18 227.803 472.694 228.151C470.211 226.455 467.728 224.759 465.161 223.006C466.161 230.891 467.135 238.564 468.18 246.801C465.971 245.965 464.673 245.474 462.458 244.635C462.458 253.324 462.458 261.456 462.458 269.587C462.138 269.611 461.817 269.636 461.497 269.66C460.292 267.788 459.087 265.915 457.881 264.043C457.357 264.207 456.832 264.371 456.308 264.535C457.254 274.275 458.2 284.015 459.146 293.756C458.799 294.146 458.452 294.536 458.105 294.926C454.962 292.733 451.818 290.54 448.036 287.902C446.581 302.96 445.173 317.531 443.765 332.102C443.339 332.253 442.913 332.403 442.488 332.554C440.255 328.731 438.023 324.909 435.791 321.086C435.338 321.13 434.885 321.174 434.432 321.217C434.432 333.163 434.432 345.109 434.432 357.054C433.71 357.3 432.989 357.546 432.267 357.792C429.721 353.519 427.175 349.246 424.206 344.263C421.001 360.048 417.954 375.053 414.908 390.057C414.488 390.137 414.068 390.216 413.647 390.295C411.797 386.45 409.946 382.605 408.095 378.76C407.683 378.765 407.27 378.771 406.858 378.776C405.08 390.039 403.301 401.302 401.522 412.565C400.926 412.657 400.331 412.749 399.735 412.841C398.153 406.209 396.571 399.577 394.988 392.945C394.524 392.903 394.059 392.862 393.594 392.82C388.972 406.203 384.351 419.587 379.729 432.97C379.11 432.843 378.491 432.717 377.872 432.59C377.872 426.357 377.872 420.125 377.872 413.893C377.384 413.853 376.896 413.813 376.408 413.773C374.04 425.946 371.671 438.12 369.302 450.293C368.798 450.295 368.293 450.296 367.788 450.298C366.733 445.265 365.679 440.232 364.624 435.199C364.101 435.003 363.578 434.807 363.056 434.611C361.741 436.574 359.926 438.368 359.194 440.529C355.357 451.849 348.639 461.201 340.176 469.433C339.072 470.507 337.852 471.461 335.951 471.888C337.898 464.907 339.845 457.926 341.793 450.945C341.219 450.746 340.645 450.548 340.071 450.35C330.221 463.833 321.643 478.036 315.06 494.176C314.622 491.795 314.016 489.43 313.796 487.029C313.577 484.646 313.748 482.227 313.748 479.825C313.265 479.667 312.781 479.51 312.298 479.352C306.796 490.884 301.294 502.416 295.791 513.948C295.505 513.979 295.219 514.01 294.933 514.042C294.933 508.138 294.933 502.235 294.933 496.332C294.405 496.292 293.877 496.252 293.35 496.212C288.217 503.889 291.292 513.536 287.769 522.468C284.912 517.892 282.38 513.837 279.14 508.647C279.14 523.573 279.14 537.124 279.14 550.674C278.649 550.944 278.158 551.214 277.667 551.484C271.377 542.031 265.087 532.578 258.797 523.125C258.396 523.191 257.995 523.257 257.593 523.323C258.079 531.728 258.564 540.133 259.126 549.862C252.782 540.639 247.175 532.487 241.568 524.336C240.954 524.623 240.34 524.911 239.727 525.198C240.91 532.005 242.094 538.811 243.278 545.618C232.671 537.617 228.975 524.944 219.868 514.235C218.177 519.646 216.869 523.831 215.125 529.414C212.118 517.577 210.868 506.49 202.135 498.354C202.135 502.868 202.135 507.382 202.135 512.562C192.44 502.182 190.306 489.222 186.412 477.074C185.945 477.106 185.478 477.139 185.01 477.171C184.268 480.39 183.525 483.609 182.422 488.39C176.955 477.253 178.117 465.966 174.426 454.534C172.522 458.475 171.155 461.304 169.249 465.247C168.528 451.121 172.496 437.918 168.852 425.071C168.227 424.998 167.602 424.925 166.977 424.852C165.714 429.82 164.451 434.788 163.187 439.756C162.634 439.864 162.08 439.971 161.527 440.078C158.449 431.502 155.372 422.925 152.064 413.703C151.177 416.457 150.423 418.798 149.243 422.459C146.616 416.357 144.512 411.471 141.827 405.235C140.809 408.311 140.274 409.93 139.524 412.195C136.898 407.808 134.489 403.783 132.373 400.248C125.44 404.096 121.739 395.866 115.954 396.307C115.954 397.759 115.954 399.221 115.954 400.757C110.151 400.757 104.363 400.757 98.1868 400.757C98.105 401.561 97.9885 402.705 97.8412 404.153C91.1759 403.319 84.6423 402.501 77.7196 401.634C78.7664 403.283 79.4899 404.423 80.9688 406.752C75.3437 405.133 71.008 403.621 66.5498 402.708C64.235 402.234 61.6998 402.946 59.2715 402.875C57.8493 402.833 56.3177 402.562 55.0475 401.953C47.8739 398.509 42.712 393.137 39.4387 385.509C39.2608 387.093 39.0829 388.678 38.905 390.262C38.5415 390.41 38.1779 390.557 37.8143 390.705C36.8787 389.179 35.3659 387.745 35.1029 386.111C33.6006 376.772 31.7255 367.41 31.3857 358.006C31.2269 353.61 33.4169 348.537 36.0088 344.784C39.2568 340.081 40.7213 335.475 40.3775 329.912C40.153 326.279 40.2772 322.574 40.7528 318.969C40.9889 317.179 42.369 315.54 43.2315 313.833C44.7294 314.958 46.3236 315.979 47.6893 317.246C48.5166 318.014 48.8136 319.368 49.6605 320.096C51.2266 321.443 53.5112 323.863 54.6262 323.456C57.5385 322.391 60.138 320.748 60.4574 316.417C60.7466 312.496 63.2274 308.737 64.911 304.479C63.5556 305.353 62.2258 306.21 60.8343 307.106C62.9372 301.015 65.0381 294.93 67.1391 288.846C66.5649 288.581 65.9908 288.316 65.4167 288.052C64.506 289.05 63.5952 290.049 62.6371 291.099C60.3163 287.72 65.701 282.958 60.8958 280.647C61.5508 274.035 62.2025 267.457 62.8542 260.879C62.0723 260.683 61.2904 260.488 60.5086 260.293C59.4048 262.955 58.301 265.618 57.1972 268.281C56.7865 268.17 56.3759 268.059 55.9652 267.949C56.4387 262.956 56.9121 257.963 57.446 252.333C55.7481 253.393 54.5662 254.131 53.1624 255.007C53.0888 249.221 55.9302 243.175 50.7542 236.917C50.7542 241.027 50.7542 244.013 50.7542 246.999C50.3354 247.063 49.9166 247.127 49.4978 247.192C48.4913 243.339 47.4848 239.486 46.3181 235.02C45.6073 236.554 45.0743 237.704 43.9618 240.105C42.2023 234.42 40.7407 229.698 39.2792 224.975C38.9296 224.939 38.58 224.903 38.2304 224.867C36.1961 233.004 34.1617 241.14 31.9842 249.849C23.8504 243.002 19.9311 234.336 20.3121 224.927C20.7355 214.471 18.5719 206.7 9.913 199.9C3.07919 194.534 0.981486 185.887 0.981105 176.912C0.98059 164.766 0.349566 152.621 0.0968852 140.474C-0.172132 127.541 4.78433 116.741 14.3078 108.206C21.1006 102.119 29.6786 101.262 37.8705 103.673C47.3594 106.466 56.4648 110.639 65.5996 114.534C73.6086 117.949 75.5582 117.376 77.7146 108.773C79.0722 103.357 79.5445 97.7184 80.545 91.3442C82.0155 93.1905 83.288 94.7363 84.5018 96.3269C85.683 97.8749 86.8042 99.4687 89.1301 102.659C92.2983 90.5032 101.734 85.7002 110.084 79.1535C110.386 80.1401 110.651 81.0088 111.271 83.0374C117.342 78.3325 123.082 73.8839 128.822 69.4352C129.209 69.7329 129.596 70.0305 129.983 70.3282C129 73.0089 128.017 75.6895 126.768 79.0994C131.318 77.512 135.351 75.802 139.551 74.7779C141.428 74.3203 143.635 75.4091 145.703 75.4826C147.422 75.5437 149.313 75.5209 150.857 74.8807C155.239 73.0628 159.133 70.0999 164.477 71.1876C165.954 71.4883 167.904 69.4865 169.632 68.5324C171.434 67.5378 173.229 66.5325 175.741 65.1342C175.575 67.306 175.485 68.4782 175.349 70.245C188.889 63.4309 201.895 56.8861 214.9 50.3413C215.136 50.6426 215.373 50.9439 215.609 51.2452C214.772 52.6992 213.936 54.1531 213.099 55.6071C213.281 56.0024 213.464 56.3978 213.646 56.7931C221.548 53.3494 229.449 49.9056 237.351 46.4619C237.496 46.7851 237.641 47.1083 237.786 47.4315C236.792 48.9298 235.798 50.4281 234.804 51.9263C235.022 52.3804 235.24 52.8345 235.458 53.2886C241.162 51.0363 246.982 49.0324 252.535 46.4539C257.043 44.3605 261.147 41.4073 265.61 39.1988C267.04 38.4914 269.044 38.9449 272.153 38.8062C272.688 38.2229 274.212 36.5598 276.464 34.102C276.859 36.9445 277.127 38.8778 277.396 40.811C277.755 40.9462 278.114 41.0813 278.473 41.2164C281.736 34.4244 284.999 27.6323 288.775 19.7706C289.842 22.5387 290.448 24.1103 291.14 25.9033C294.134 20.9393 296.95 16.2717 299.765 11.6041C300.225 11.7824 300.684 11.9608 301.143 12.1392C301.55 13.4515 301.958 14.7639 302.083 15.167C306.139 11.5369 310.1 7.46976 314.622 4.17164C316.79 2.58991 319.232 -0.749492 323.132 2.73078C324.308 3.78002 327.846 1.98496 330.323 1.81625C334.76 1.51417 339.707 -2.11527 343.32 3.99886C343.922 5.01757 346.735 4.75943 348.535 5.03463C352.242 5.60153 355.956 6.13015 360.511 6.79839C358.846 8.67099 357.926 9.70606 356.643 11.1491C367.78 16.5105 376.404 24.5989 383.907 34.8353C380.799 34.6404 377.691 34.4455 374.281 34.2316C383.353 45.1793 387.209 57.7917 388.327 72.2246C386.715 71.3977 385.738 70.9421 384.808 70.4064C383.96 69.9183 383.162 69.3432 382.222 68.7281C382.791 76.1819 387.421 80.1827 400.401 84.3756C398.681 88.1972 401.288 89.0815 404.284 90.4101C411.049 93.4105 417.616 96.8703 424.172 100.317C425.464 100.997 426.346 102.458 427.417 103.558C427.165 103.901 426.913 104.244 426.661 104.587C422.505 102.853 418.35 101.119 414.121 99.3543C414.62 103.153 416.045 104.583 422.124 107.417C425.708 109.088 429.314 110.71 432.911 112.354C432.749 112.799 432.587 113.243 432.425 113.688C430.018 113.462 427.612 113.236 425.206 113.011C438.256 119.06 450.422 125.683 456.495 140.089C453.19 138.282 449.885 136.475 446.581 134.668C446.193 135.077 445.805 135.486 445.418 135.895C453.637 143.149 461.735 150.496 466.916 161.721C464.322 161.05 462.81 160.659 460.602 160.15C459.804 160.486 459.701 160.941 459.597 161.396C463.616 165.996 467.771 170.487 471.608 175.234C474.121 178.342 476.175 181.821 478.434 185.134C478.059 185.566 477.685 185.998 477.31 186.431C473.25 184.526 469.189 182.622 464.559 180.447C463.73 180.606 463.47 181.034 463.21 181.463ZM13.8313 121.892C13.6242 121.339 13.4171 120.786 12.5663 120.529C12.3977 121.198 12.229 121.867 12.0603 122.537C12.3977 122.422 12.7351 122.308 13.8313 121.892ZM55.9358 230.393C55.7343 230.757 55.5328 231.121 55.5735 232.16C62.2991 245.183 68.2548 258.434 70.6737 273.106C73.0185 287.328 75.4015 301.415 68.7448 315.177C68.3636 315.965 68.373 316.942 68.2006 317.831C73.3128 313.218 75.7033 307.395 75.877 300.854C76.3677 282.377 73.7033 264.261 67.123 247.027C64.8591 241.097 59.8909 236.201 55.9358 230.393ZM126.14 289.105C119.998 298.576 114.007 308.149 107.675 317.492C99.7975 329.113 90.2218 338.83 76.4482 343.43C76.2756 343.487 76.2465 343.974 75.8532 345.147C80.0486 344.403 83.8368 343.731 87.625 343.059C87.7028 343.283 87.7806 343.507 87.8584 343.731C84.5507 346.044 81.2429 348.357 77.8037 350.763C90.3662 362.325 107.572 359.803 113.914 345.103C119.736 331.608 123.847 317.374 128.654 303.446C128.931 302.643 128.69 301.662 128.69 299.363C125.53 302.959 123.209 305.6 120.888 308.241C120.56 307.994 120.232 307.747 119.904 307.5C122.476 301.495 125.047 295.489 127.922 288.971C127.922 288.427 127.922 287.883 127.922 286.353C127.218 287.75 126.967 288.248 126.14 289.105ZM446.668 239.088C450.043 242.169 453.417 245.25 457.032 248.55C457.297 239.733 451.842 232.936 449.491 224.601C452.548 226.637 455.605 228.673 458.663 230.709C458.671 227.262 457.757 224.24 456.496 221.371C455.113 218.224 453.409 215.217 452.102 211.903C452.102 211.903 452.36 211.658 453.136 211.712C455.305 212.288 457.473 212.865 458.865 213.235C455.616 204.281 452.373 195.347 449.131 186.413C449.512 186.124 449.894 185.834 450.276 185.545C454.325 188.443 458.373 191.342 462.422 194.241C462.791 193.942 463.161 193.643 463.53 193.344C458.943 185.99 454.357 178.635 449.77 171.281C449.918 170.987 450.066 170.694 450.213 170.401C454.744 172.614 459.274 174.827 463.805 177.04C464.117 176.609 464.43 176.177 464.743 175.745C455.601 166.568 446.459 157.39 437.317 148.213C437.659 147.633 438 147.052 438.342 146.472C442.405 147.824 446.467 149.175 451.036 150.841C451.33 150.776 451.623 150.712 451.917 150.647C451.691 150.352 451.465 150.057 451.019 149.127C444.714 142.608 438.409 136.088 431.716 129.169C434.668 129.023 436.822 128.916 438.975 128.81C439.022 128.481 439.069 128.153 439.115 127.824C431.709 124.601 424.303 121.379 416.897 118.156C416.671 118.613 416.446 119.069 416.22 119.526C422.09 125.709 427.961 131.891 434.65 138.936C428.339 138.936 423.286 138.936 418.234 138.936C417.921 139.459 417.608 139.982 417.296 140.505C425.702 146.66 434.108 152.816 442.514 158.972C442.254 159.377 441.993 159.782 441.732 160.188C438.154 159.372 434.575 158.557 430.996 157.742C430.558 158.338 430.12 158.934 429.683 159.529C434.957 164.11 440.231 168.691 445.505 173.272C445.162 173.747 444.819 174.222 444.476 174.697C440.152 172.995 435.829 171.293 430.571 169.223C436.742 179.143 444.515 186.932 445.95 197.881C445.555 198.169 445.16 198.458 444.764 198.747C441.063 195.596 437.362 192.445 433.969 189.557C435.816 196.893 437.916 205.239 440.017 213.585C439.552 213.794 439.087 214.004 438.622 214.213C424.066 203.614 413.336 189.925 405.15 172.485C409.798 174.819 413.167 176.51 416.536 178.201C409.682 165.03 399.326 156.178 386.019 150.605C386.158 150.045 386.296 149.485 386.435 148.925C391.804 148.462 397.173 148 403.169 147.483C397.16 140.877 389.325 141.682 382.088 139.658C385.376 137.988 388.319 136.492 391.262 134.997C391.176 134.599 391.089 134.201 391.002 133.804C379.895 134.182 369.079 133.283 358.164 127.124C363.908 126.431 368.38 125.892 372.853 125.353C372.996 124.894 373.139 124.434 373.282 123.975C366.405 118.695 359.527 113.416 352.652 108.137C355.289 107.978 358.123 107.807 362.009 107.573C353.439 98.4643 343.718 93.838 330.963 92.6244C335.117 88.2558 338.154 85.063 341.19 81.8701C340.906 81.4079 340.621 80.9457 340.336 80.4835C335.456 81.6308 330.576 82.7781 324.59 84.1855C327.485 78.9963 329.873 74.7162 332.421 70.1486C323.664 68.9257 319.639 75.4735 314.747 80.4199C313.616 77.0367 312.711 74.3267 311.651 71.1562C306.461 81.9193 308.795 91.6733 317.888 97.8029C318.568 94.4593 319.214 91.2802 319.624 89.2644C326.774 91.187 329.058 100.22 337.781 99.7499C334.689 100.983 331.597 102.217 327.739 103.756C336.667 110.151 348.052 110.42 356.01 118.528C347.132 119.316 339.511 119.992 331.89 120.669C331.873 121.051 331.855 121.434 331.838 121.817C341.38 126.317 350.923 130.817 360.704 135.43C358.91 136.196 357.579 136.764 355.465 137.666C362.866 143.16 371.801 141.429 380.207 145.056C374.309 146.763 369.672 148.106 363.709 149.832C374.96 154.397 384.726 158.36 394.492 162.323C394.189 163.19 393.886 164.057 393.583 164.924C376.539 158.654 357.49 159.318 340.878 148.587C347.103 147.934 352.436 147.374 357.77 146.814C357.778 146.339 357.786 145.863 357.794 145.388C345.505 143.809 334.998 138.285 325.233 130.856C327.634 130.856 330.036 130.856 333.74 130.856C326.117 125.973 319.68 121.851 312.259 117.098C317.677 115.983 321.776 115.139 325.875 114.296C325.816 114.015 325.757 113.735 325.698 113.454C317.367 112.207 309.037 110.96 300.706 109.713C300.719 109.136 300.731 108.56 300.743 107.983C303.573 106.633 306.402 105.284 309.231 103.934C309.138 103.588 309.045 103.241 308.951 102.894C303.859 102.215 298.767 101.536 292.317 100.676C295.924 99.7389 298.14 99.1629 301.448 98.3034C298.713 94.6174 295.859 91.6177 294.042 88.085C292.206 84.5154 291.396 80.4176 290.136 76.5511C290.653 76.3557 291.17 76.1602 291.686 75.9647C292.983 77.9845 294.173 80.0845 295.607 82.0014C297.047 83.9254 298.73 85.6668 300.307 87.4882C300.774 87.1889 301.241 86.8896 301.708 86.5903C297.372 77.9358 293.605 68.9864 296.807 59.3783C299.727 50.6167 303.67 42.1959 307.161 33.6248C307.714 33.791 308.266 33.9572 308.819 34.1234C308.819 37.552 308.819 40.9805 308.819 45.9011C314.57 39.4473 314.698 30.8126 322.729 25.9777C321.646 29.7795 320.958 32.1933 320.27 34.6071C320.643 34.9287 321.016 35.2503 321.39 35.5719C324.458 32.7748 327.279 29.6192 330.665 27.2814C334.062 24.9357 338.022 23.4055 342.356 21.2021C338.901 27.5126 336.054 32.7111 332.695 38.844C341.103 38.0395 347.383 32.6577 355.928 36.5039C349.388 38.4798 344.835 41.3869 343.149 47.0943C347.721 47.8204 352.443 47.6364 356.215 49.4403C359.764 51.1376 362.309 54.9319 365.296 57.8036C364.976 58.1365 364.656 58.4693 364.336 58.8022C356.333 54.0942 347.992 54.0062 343.925 58.7902C349.378 63.9545 358.839 64.6007 361.745 74.0603C358.111 72.7758 355.319 71.7889 351.21 70.3361C356.208 81.5335 363.513 88.2988 374.119 93.1615C371.781 85.2288 369.548 77.6533 367.052 69.1859C370.563 72.1711 373.421 74.6014 376.279 77.0318C376.768 76.7571 377.258 76.4824 377.747 76.2076C373.031 65.548 368.316 54.8884 363.6 44.2287C364.052 43.9154 364.503 43.6022 364.955 43.2889C368.949 46.4922 372.942 49.6955 376.936 52.8987C377.317 52.4235 377.698 51.9482 378.079 51.473C373.362 41.3028 366.183 33.2434 355.482 27.3825C359.565 26.7863 362.522 26.3545 366.751 25.7371C361.953 22.4755 358.512 19.4138 354.505 17.6141C350.434 15.7859 345.804 15.2025 341.465 14.0859C341.908 13.1568 342.577 11.7549 343.516 9.78624C335.924 8.0752 330.494 12.3241 324.395 15.1815C324.634 12.8302 324.819 11.0206 325.003 9.21106C324.435 8.86934 323.868 8.52763 323.3 8.18591C318.746 13.591 314.192 18.996 309.481 24.5862C309.15 22.9932 308.895 21.7641 308.639 20.535C308.236 20.3298 307.832 20.1246 307.429 19.9194C304.528 24.6808 301.628 29.4421 298.323 34.8675C297.766 31.6464 297.382 29.4252 296.998 27.2039C296.588 27.1192 296.179 27.0344 295.769 26.9496C293.609 33.1463 291.449 39.3429 288.896 46.6674C287.05 43.4441 285.975 41.5681 284.9 39.692C284.523 39.7685 284.145 39.845 283.768 39.9215C283.768 53.9634 283.768 68.0053 283.768 82.0471C283.468 82.0637 283.168 82.0803 282.868 82.0969C280.696 77.8717 278.523 73.6464 276.617 69.9377C270.243 75.9409 264.518 81.3335 258.567 86.9385C263.007 86.3867 267.201 85.8655 271.394 85.3443C271.625 85.986 271.856 86.6277 272.087 87.2694C266.645 91.0594 261.204 94.8493 255.296 98.9636C263.162 102.218 270.59 105.292 278.017 108.365C277.846 108.774 277.675 109.183 277.504 109.593C270.768 110.029 264.032 110.466 257.296 110.903C257.25 111.558 257.204 112.213 257.159 112.869C263.28 115.575 269.401 118.282 275.522 120.988C275.312 121.467 275.102 121.945 274.892 122.423C261.381 119.222 247.871 116.022 234.36 112.821C234.436 112.46 234.511 112.099 234.587 111.737C240.767 110.625 246.947 109.513 253.127 108.401C253.103 107.937 253.079 107.474 253.055 107.01C243.468 104.247 233.882 101.484 223.339 98.4454C228.393 96.826 232.782 95.4193 238.524 93.5792C228.608 89.2737 219.935 92.6313 210.4 93.3586C212.977 90.2877 214.887 88.0115 216.798 85.7352C216.581 85.4623 216.365 85.1894 216.148 84.9165C207.925 87.106 199.702 89.2955 191.479 91.4849C191.318 90.9655 191.156 90.446 190.995 89.9266C196.753 85.3525 199.851 77.7484 208.277 74.7554C206.731 77.6124 205.66 79.5916 204.588 81.5708C204.831 81.8939 205.074 82.2169 205.316 82.54C213.13 77.8191 220.944 73.0983 228.757 68.3774C228.992 68.7766 229.226 69.1757 229.461 69.5749C228.514 71.5509 227.567 73.5268 226.45 75.8586C235.336 73.9074 250.694 60.8747 251.809 54.3075C248.881 55.9483 246.246 57.425 242.545 59.4988C243.361 57.3137 243.748 56.2776 244.135 55.2415C243.824 54.8128 243.513 54.3842 243.202 53.9555C234.921 58.7855 226.64 63.6155 217.074 69.195C219.232 64.9654 220.738 62.014 222.244 59.0626C210.669 64.1235 203.971 75.5953 191.397 81.0879C193.897 75.8879 195.692 72.1527 197.488 68.4176C197.015 67.9866 196.542 67.5556 196.069 67.1246C192.157 70.257 188.245 73.3906 184.332 76.5214C180.475 79.6066 177.684 84.2279 171.581 85.706C172.302 82.9823 172.797 81.1146 173.292 79.2468C172.959 79.0089 172.626 78.771 172.294 78.5331C164.062 86.674 155.831 94.8149 147.6 102.956C147.233 102.656 146.866 102.356 146.5 102.057C147.078 100.013 147.656 97.9688 148.286 95.7444C143.074 96.6592 138.092 100.916 134.44 107.003C134.742 107.11 135.044 107.217 136.062 107.426C136.855 107.314 137.648 107.202 138.98 107.013C136.657 111.925 134.542 116.543 139.303 120.797C139.987 119.854 140.643 118.95 141.226 118.145C143.075 119.449 144.62 120.539 145.88 121.427C150.141 111.175 156.942 104.355 167.045 101.231C173.134 99.3488 179.438 98.1635 186.132 96.5476C186.132 98.7096 186.132 100.087 186.132 101.235C191.656 101.938 196.824 102.595 201.993 103.253C202.032 103.595 202.072 103.938 202.112 104.28C199.849 105.345 197.587 106.41 194.767 107.738C204.124 110.712 212.948 113.271 217.88 123.196C214.399 122.447 211.734 121.875 209.07 121.302C208.868 121.575 208.667 121.849 208.465 122.122C213.943 127.313 219.42 132.503 224.898 137.693C224.399 137.906 223.9 138.119 223.401 138.331C223.783 140.009 223.811 141.885 224.619 143.323C226.474 146.624 228.709 149.711 230.789 152.885C230.313 153.271 229.836 153.656 229.359 154.041C221.968 149.561 214.576 145.08 206.284 140.054C209.195 140.054 210.908 140.054 214.349 140.054C210.408 136.561 207.515 133.997 204.136 131.002C206.634 131.002 208.233 131.002 210.68 131.002C206.539 122.518 198.719 119.573 190.33 115.324C194.867 115.082 197.954 114.918 201.041 114.753C201.042 114.257 201.042 113.76 201.042 113.263C195.116 109.775 188.311 111.62 181.96 110.797C181.85 109.547 181.746 108.362 181.685 107.663C176.951 108.032 172.628 108.369 168.389 108.735C168.389 108.735 168.307 108.715 169.007 108.468C169.672 107.476 170.336 106.485 171.001 105.493C170.648 105.052 170.295 104.611 169.942 104.17C167.719 105.538 165.36 106.73 163.304 108.316C160.587 110.411 157.881 112.614 155.616 115.166C154.428 116.504 154.192 118.686 153.526 120.488C155.52 120.676 157.779 121.549 159.451 120.904C162.465 119.74 165.129 117.668 167.938 115.976C167.925 116.524 167.912 117.072 167.899 117.62C170.388 118.18 172.86 118.833 175.369 119.275C178.292 119.789 181.249 120.118 184.191 120.527C184.148 120.844 184.105 121.162 184.063 121.479C183.086 121.955 182.11 122.432 180.79 123.076C183.161 125.133 185.21 126.911 187.867 129.216C183.9 131.114 180.518 132.732 177.882 133.993C175.177 133.214 173.079 132.61 170.803 131.206C173.908 130.031 177.012 128.856 180.116 127.68C179.996 126.766 179.875 125.852 179.755 124.938C173.881 124.396 168.006 123.853 162.132 123.311C161.82 124.146 161.507 124.981 161.195 125.816C163.271 127.231 165.38 128.599 167.402 130.086C168.034 130.551 168.431 131.336 168.144 131.874C163.849 129.153 162.317 132.056 160.924 134.971C162.503 137.901 163.894 140.483 164.879 142.31C163.098 144.292 161.93 145.592 160.294 147.412C155.04 143.228 149.656 138.941 144.273 134.654C144.073 134.907 143.873 135.161 143.673 135.415C144.167 136.527 144.662 137.638 145.482 139.483C138.698 135.994 134.14 128.993 125.628 131.029C129.385 135.95 132.776 140.394 135.815 145.27C135.716 145.428 135.618 145.586 134.831 145.512C129.843 143.442 124.856 141.371 119.869 139.301C119.646 139.707 119.422 140.114 119.199 140.52C122.619 144.104 126.04 147.687 129.634 151.453C127.963 152.348 126.61 153.072 125.252 153.799C127.811 156.813 130.131 159.546 132.451 162.28C132.154 162.56 131.857 162.84 131.56 163.119C128.704 162.471 125.848 161.822 122.992 161.173C122.788 161.556 122.584 161.94 122.38 162.323C126.384 167.579 130.389 172.836 134.873 178.721C128.715 178.062 127.215 176.843 123.724 172.398C118.813 166.148 113.58 160.151 108.478 154.051C107.563 152.959 106.613 151.896 105.679 150.82C105.858 150.52 106.037 150.22 106.217 149.92C109.265 150.946 112.313 151.971 115.36 152.996C111.13 144.645 104.358 139.735 97.0735 135.441C96.8169 135.762 96.5603 136.083 96.3036 136.404C96.7201 137.821 97.1366 139.237 97.9234 141.913C92.0251 138.308 87.3168 135.43 81.8174 132.069C81.7405 140.499 77.14 145.411 71.5572 150.5C69.7034 152.338 67.8497 154.175 65.2802 155.979C61.4605 158.523 57.6408 161.067 53.8211 163.611C60.5354 155.91 67.9109 149.227 75.1422 142.39C79.4277 138.339 80.2882 133.951 76.5307 129.644C71.9388 124.382 67.7017 117.578 58.6604 119.846C57.6547 120.099 56.1937 119.066 55.1135 118.368C53.4436 117.287 51.9956 115.863 50.3222 114.789C39.5685 107.889 24.9278 104.808 15.6261 116.346C14.9821 117.145 14.6879 118.226 14.2309 119.176C17.3239 118.034 19.2837 115.978 21.663 114.707C24.216 113.344 27.1634 112.719 30.6964 111.513C29.9799 112.779 29.8517 113.308 29.516 113.554C20.494 120.164 23.6019 129.986 28.5296 136.333C28.6637 136.506 29.4979 136.135 29.9883 136.001C29.9883 136.001 29.9712 135.983 29.1047 136.451C29.8409 138.212 30.5771 139.973 31.487 142.149C23.4046 142.798 21.4842 148.511 20.488 154.915C19.5308 161.067 22.0387 164.587 28.278 165.176C32.4714 165.571 36.7324 165.251 41.0526 165.251C36.1508 173.334 33.1409 174.647 24.9042 172.243C22.0409 171.407 19.1832 170.5 16.4181 169.39C9.36235 166.555 8.73902 165.183 13.0995 158.938C17.4788 152.666 20.6649 145.985 21.6312 138.459C22.2447 133.681 23.8256 128.493 19.0069 124.028C18.8195 124.506 18.6321 124.984 18.5138 126.328C19.1611 137.759 18.0275 148.43 8.0983 156.355C2.62137 160.726 4.21935 169.009 10.6554 171.662C13.2573 172.734 16.0275 173.415 18.5849 174.575C27.2422 178.5 35.4199 178.98 43.288 172.114C43.4936 172.216 43.6993 172.318 43.5389 173.025C41.2726 175.349 39.0063 177.674 35.7434 181.02C44.6381 181.697 52.0751 182.264 59.5121 182.83C52.1924 183.952 44.9461 183.711 37.7243 184.028C31.9446 184.282 26.7057 186.21 22.676 190.791C18.8946 195.091 17.1469 194.955 14.1036 190.062C12.0479 186.756 10.4151 183.188 8.59315 179.738C8.66815 188.695 13.1645 195.097 19.7796 200.792C20.9427 199.4 22.0209 198.521 22.5661 197.386C24.8032 192.728 28.7031 190.314 33.5389 189.708C54.9286 187.028 75.7109 188.091 94.4724 200.457C95.8636 201.374 97.299 202.224 98.7138 203.105C98.9443 202.784 99.1747 202.462 99.4052 202.14C97.1136 199.488 94.8219 196.835 92.5303 194.182C93.1036 193.614 93.6769 193.045 94.2502 192.477C99.2913 196.787 104.332 201.098 109.493 205.51C109.831 204.981 110.383 204.119 111.04 203.093C114.779 206.516 118.268 209.71 121.977 213.106C122.383 211.822 122.695 210.836 123.201 209.238C125.515 213.994 127.537 218.149 129.558 222.305C129.821 222.182 130.084 222.059 130.347 221.936C130.186 218.789 130.024 215.643 129.863 212.496C130.207 212.453 130.55 212.409 130.894 212.366C132.973 221.74 135.052 231.115 137.132 240.49C137.631 240.44 138.131 240.39 138.63 240.34C139.304 239.313 139.978 238.286 140.624 237.302C141.208 250.636 141.781 263.746 142.365 277.085C138.805 276.329 138.86 278.786 139.253 281.549C139.581 283.854 139.932 286.164 140.092 288.484C140.204 290.119 140.582 292.88 139.869 293.246C134.712 295.898 136.989 300.668 136.298 304.511C135.733 307.652 135.619 310.873 135.305 314.059C134.855 314.019 134.405 313.98 133.955 313.94C133.955 312.336 134.03 310.727 133.934 309.128C133.836 307.486 133.572 305.853 133.381 304.217C132.932 304.202 132.482 304.187 132.033 304.173C128.26 317.253 124.486 330.332 120.712 343.412C121.302 343.721 121.892 344.03 122.481 344.338C125.632 339.445 128.783 334.552 131.934 329.659C132.287 329.845 132.64 330.03 132.993 330.216C132.645 332.899 132.297 335.582 131.95 338.265C132.404 338.519 132.859 338.773 133.314 339.027C134.222 337.861 135.687 336.806 135.947 335.509C137.443 328.069 138.849 320.597 139.872 313.079C140.338 309.658 139.704 305.994 145.558 307.126C145.558 300.708 145.558 294.893 145.558 289.078C145.898 289.005 146.238 288.933 146.578 288.86C148.436 291.99 150.294 295.119 152.152 298.248C152.733 298.071 153.313 297.895 153.893 297.719C152.261 289.566 150.629 281.414 148.996 273.261C149.508 272.863 150.019 272.465 150.531 272.067C152.09 274.478 153.649 276.888 155.208 279.299C155.606 279.021 156.003 278.742 156.4 278.464C155.616 275.795 154.711 273.154 154.081 270.449C153.492 267.916 153.193 265.317 152.767 262.747C160.332 271.82 163.207 282.21 163.778 293.841C161.589 292.693 159.906 291.81 156.813 290.188C156.813 299.157 156.813 307.045 156.813 314.934C156.447 314.884 156.08 314.833 155.714 314.783C153.959 311.369 152.204 307.955 150.186 304.031C148.598 316.018 147.132 327.087 145.665 338.156C145.218 338.093 144.771 338.03 144.324 337.968C143.78 336.35 143.235 334.732 142.468 332.457C135.77 339.764 134.945 350.792 124.899 355.031C125.085 352.198 125.248 349.698 125.412 347.198C124.83 346.784 124.247 346.369 123.665 345.954C122.374 347.803 121.199 349.75 119.756 351.471C118.493 352.979 117.136 354.608 115.462 355.538C105.25 361.214 94.656 363.229 83.4405 358.408C77.1849 355.72 71.0234 352.594 64.5078 350.792C58.3699 349.095 51.843 348.472 45.4488 348.158C41.5709 347.967 37.9569 350.376 37.7203 354.554C37.4664 359.039 38.5233 363.599 39.0081 368.126C45.2611 369.06 43.4784 374.701 44.8664 378.392C45.8836 381.097 46.1816 384.073 46.8001 386.928C47.1994 386.873 47.5986 386.818 47.9979 386.763C48.3847 384.468 48.7715 382.173 49.1583 379.878C49.5701 379.763 49.9819 379.649 50.3937 379.535C52.1088 382.792 53.7133 386.114 55.5701 389.288C57.4128 392.438 59.2296 395.817 64.1706 395.918C63.0408 393.397 62.1618 391.436 61.7726 389.165C61.9185 389.038 62.0644 388.911 62.8984 388.897C68.9156 393.221 75.107 397.005 84.0116 395.736C81.9228 393.948 80.5563 392.779 78.5315 391.046C80.2056 391.334 80.9962 391.505 81.7957 391.603C88.2286 392.387 94.6631 393.157 100.798 394.425C101.053 394.51 101.308 394.594 101.563 394.679C101.369 394.457 101.175 394.236 100.801 393.354C98.8532 391.799 96.9053 390.244 94.2907 388.158C100.242 388.928 105.092 389.556 109.941 390.184C110.044 389.544 110.148 388.904 110.251 388.264C99.701 385.384 89.151 382.503 77.7169 379.381C78.3257 381.663 78.6187 382.761 79.0475 384.368C74.4225 382.771 70.3376 381.361 65.8405 379.808C66.663 382.593 67.2698 384.647 67.8766 386.701C67.3899 386.968 66.9033 387.235 66.4166 387.503C63.4907 383.582 60.5647 379.662 57.451 375.49C56.9008 377.671 56.5012 379.255 56.1016 380.84C55.756 380.82 55.4105 380.801 55.065 380.782C53.8812 376.111 52.6974 371.44 51.3561 366.147C48.9983 367.958 47.5306 369.085 45.4343 370.695C44.9922 366.856 44.1582 363.726 44.451 360.704C44.6446 358.705 46.0323 356.074 47.6727 355.195C49.0363 354.464 52.0626 355.276 53.444 356.463C56.3143 358.928 58.5193 362.154 61.1276 364.945C62.2121 366.106 63.7902 367.956 64.8671 367.781C70.5432 366.863 74.1474 370.695 78.5023 372.921C82.4159 374.921 86.5507 376.489 90.588 378.247C90.824 377.753 91.06 377.26 91.296 376.766C87.1173 373.57 82.9385 370.374 78.7597 367.179C89.4267 368.968 99.6347 371.312 109.472 374.726C118.287 377.785 126.255 378.086 133.763 371.919C133.954 371.762 134.386 371.899 135.73 371.899C137.156 375.015 138.745 378.488 140.826 383.036C146.955 374.729 148.32 365.193 151.692 355.934C153.598 359.406 155.375 362.642 157.642 366.772C159.399 355.508 160.988 345.321 162.577 335.135C162.883 335.109 163.19 335.084 163.496 335.059C165.814 340.177 168.131 345.294 170.448 350.412C170.997 350.358 171.545 350.304 172.094 350.249C172.552 337.81 173.009 325.37 173.519 311.535C177.092 318.287 179.992 323.767 182.893 329.247C183.197 329.12 183.5 328.993 183.804 328.866C183.804 315.288 183.804 301.71 183.804 288.132C184.235 287.994 184.667 287.856 185.098 287.718C187.485 293.488 189.872 299.258 192.753 306.222C194.955 292.171 196.595 279.498 193.066 266.378C196.72 270.644 200.374 274.909 204.028 279.174C204.598 278.904 205.169 278.633 205.74 278.362C204.83 273.743 204.258 269.023 202.917 264.533C201.521 259.861 199.382 255.411 197.568 250.864C197.859 250.663 198.15 250.461 198.441 250.26C202.514 253.098 206.587 255.936 210.659 258.774C210.811 254.515 210.27 250.886 209.018 247.521C207.801 244.252 205.856 241.254 204.227 238.139C213.808 238.541 220.115 259.543 216.595 280.432C214.494 276.966 212.653 273.93 210.812 270.894C210.436 271.051 210.06 271.209 209.684 271.367C210.318 281.798 210.953 292.229 211.692 304.389C208.1 300.322 205.355 297.214 201.81 293.201C202.612 307.394 203.341 320.304 204.07 333.215C204.818 333.284 205.566 333.353 206.315 333.422C207.604 326.64 208.893 319.858 210.182 313.076C210.509 313.09 210.837 313.104 211.164 313.118C213.219 331.306 215.274 349.495 217.329 367.683C217.843 367.724 218.357 367.766 218.871 367.807C220.957 354.456 223.043 341.105 225.26 326.918C228.627 338.166 231.718 348.492 234.809 358.818C240.777 339.976 237.81 320.811 240.147 300.873C244.512 310.179 248.393 318.454 252.274 326.729C252.991 308.926 248.965 292.02 243.235 275.382C243.76 275.249 244.285 275.116 244.81 274.983C250.923 283.516 257.037 292.05 263.15 300.583C263.793 300.272 264.435 299.961 265.077 299.65C262.725 285.576 260.373 271.503 258.02 257.43C258.442 257.241 258.863 257.051 259.285 256.862C264.802 265.99 270.319 275.117 275.836 284.245C276.427 283.988 277.019 283.732 277.61 283.476C273.48 267.638 269.35 251.799 265.22 235.961C265.515 235.74 265.809 235.519 266.104 235.298C271.554 241.188 277.004 247.078 282.454 252.968C282.802 252.733 283.149 252.498 283.496 252.262C278.161 237.266 272.827 222.27 267.492 207.273C267.913 207.024 268.334 206.774 268.755 206.524C274.891 212.159 281.026 217.794 287.162 223.429C287.537 223.141 287.911 222.853 288.286 222.565C284.695 207.665 275.87 194.466 272.644 179.447C273.086 179.196 273.529 178.945 273.971 178.695C279.508 183.644 285.045 188.593 290.582 193.542C291.042 193.153 291.501 192.765 291.961 192.377C288.757 179.822 275.594 172.66 273.768 158.316C279.97 162.817 285.951 167.158 293.244 172.451C287.87 161.311 283.09 151.403 278.762 141.172C278.903 141.051 279.043 140.931 279.849 140.974C282.595 143.35 285.944 145.3 287.981 148.178C295.517 158.829 301.172 170.495 304.654 183.104C305.939 187.758 306.63 192.575 307.591 197.318C307.199 197.456 306.807 197.595 306.415 197.733C303.543 194.525 300.671 191.317 297.799 188.109C300.892 200.12 306.71 211.192 303.566 224.491C300.175 219.503 296.783 214.514 293.392 209.525C297.272 223.164 302.938 235.748 303.043 250.966C298.072 245.549 293.956 241.062 289.841 236.576C289.475 236.85 289.109 237.123 288.743 237.397C292.962 253.331 296.146 269.403 295.845 285.991C291.127 279.875 288.084 272.737 282.614 267.464C282.194 267.7 281.774 267.936 281.354 268.173C283.972 283.799 286.59 299.425 289.209 315.051C288.68 315.328 288.152 315.605 287.624 315.882C282.764 308.545 277.904 301.208 273.044 293.872C271.242 307.345 274.815 320.38 270.424 333.557C267.57 327.935 264.716 322.312 261.861 316.689C263.403 330.083 258.38 355.992 255.272 363.98C252.542 354.631 250.024 346.007 247.506 337.383C247.116 337.51 246.726 337.638 246.337 337.766C242.044 352.908 237.751 368.05 233.458 383.192C233.188 383.099 232.918 383.006 232.648 382.913C231.421 376.667 230.194 370.421 228.966 364.174C228.759 364.318 228.552 364.462 228.345 364.606C224.828 381.476 221.312 398.347 217.625 416.033C220.937 411.504 223.907 407.442 226.878 403.379C227.318 403.578 227.759 403.777 228.2 403.976C224.355 419.949 226.168 435.595 230.133 451.191C232.785 438.085 234.343 424.807 242.872 413.473C243.932 443.266 245.366 449.452 252.285 451.846C250.786 425.753 263.72 403.786 270.906 380.192C271.433 380.292 271.959 380.392 272.485 380.491C271.427 393.918 270.368 407.344 269.31 420.771C269.705 420.896 270.1 421.021 270.495 421.146C277.637 406.276 286.287 392.068 289.272 375.374C289.682 375.38 290.092 375.387 290.502 375.394C291.266 384.652 292.031 393.91 292.89 404.315C302.927 391.508 304.921 377.621 305.054 362.037C311.783 369.982 310.77 379.448 314.812 387.984C320.076 375.27 322.52 363.031 320.889 350.041C321.329 349.937 321.769 349.833 322.209 349.728C326.27 356.343 330.33 362.958 334.391 369.572C334.997 369.46 335.604 369.348 336.21 369.235C336.21 365.193 337.016 360.941 336.036 357.152C334.216 350.123 331.354 343.363 328.924 336.492C327.058 331.217 325.206 325.941 326.797 319.348C335.982 327.33 337.402 339.651 345.318 347.598C341.493 331.63 336.369 316.034 337.968 299.461C338.495 299.231 339.022 299.001 339.549 298.771C344.704 307.242 349.86 315.714 355.015 324.185C355.411 323.99 355.807 323.795 356.202 323.6C353.824 307.308 349.204 291.746 340.28 277.776C346.832 282.551 353.384 287.326 360.244 292.432C360.361 292.268 360.478 292.105 360.595 291.942C360.354 292.042 360.113 292.143 360.571 291.717C355.941 281.26 351.311 270.803 346.318 259.526C352.811 262.137 358.171 264.292 363.53 266.447C363.858 265.946 364.185 265.445 364.512 264.944C357.184 255.843 349.856 246.743 342.528 237.642C342.866 237.278 343.204 236.913 343.542 236.548C350.332 239.441 357.122 242.333 363.912 245.226C364.178 244.757 364.444 244.288 364.71 243.819C359.679 239.108 354.518 234.526 349.654 229.649C344.837 224.817 340.365 219.655 338.468 212.496C348.113 217.236 357.758 221.976 367.403 226.716C367.78 226.157 368.156 225.599 368.532 225.04C358.559 215.163 348.587 205.285 338.614 195.408C338.771 195.058 338.927 194.708 339.084 194.358C345.43 195.97 351.776 197.582 358.123 199.193C346.646 187.731 332.377 179.881 323.598 165.854C333.161 168.925 341.012 176.746 352.453 176.488C341.088 167.699 330.393 159.428 319.698 151.157C335.327 152.429 369.514 178.21 372.867 189.85C365.757 187.124 358.692 184.414 351.628 181.705C351.462 182.102 351.297 182.498 351.131 182.895C356.273 187.559 361.607 192.03 366.503 196.94C371.393 201.844 374.875 207.649 375.94 215.655C371.263 213.033 367.487 210.916 363.71 208.798C363.238 209.22 362.766 209.642 362.294 210.064C372.28 218.463 378.469 228.787 380.13 242.688C374.727 239.232 370.141 236.297 365.554 233.363C365.296 233.693 365.037 234.023 364.778 234.354C372.721 242.458 379.995 250.91 381.18 263.82C375.669 259.895 371.201 256.713 366.734 253.531C370.223 263.832 378.496 272.078 375.468 284.498C370.943 281.273 366.835 278.346 362.727 275.419C362.575 277.443 363.182 278.432 363.683 279.473C370.4 293.422 371.81 308.333 371.672 323.474C371.672 323.474 371.701 323.424 371.289 322.866C368.076 317.776 364.863 312.685 361.649 307.594C363.699 323.081 364.929 338.149 357.913 353.128C355.922 348.539 354.192 344.553 352.463 340.568C352.35 353.82 353.077 366.691 346.542 379.013C345.775 375.338 345.008 371.663 344.241 367.988C338.954 385.021 332.455 401.237 323.96 416.629C323.96 410.306 323.96 403.983 323.96 397.079C313.115 415.184 303.435 456.819 306.654 471.079C310.819 460.228 314.908 449.573 318.998 438.917C319.417 439.029 319.836 439.14 320.256 439.252C320.633 447.416 321.01 455.58 321.416 464.378C326.908 455.789 332.324 448.183 336.808 440.062C341.246 432.026 344.744 423.47 349.024 414.353C349.024 424.884 349.024 434.809 349.024 444.734C349.63 444.845 350.237 444.956 350.843 445.067C354.666 431.975 358.49 418.882 362.666 404.58C364.026 420.785 365.25 425.378 369.404 428.551C366.047 412.923 374.549 400.587 378.951 385.967C380.756 391.891 382.258 396.818 383.76 401.745C384.33 401.763 384.9 401.781 385.47 401.8C387.924 391.284 390.378 380.768 392.798 370.399C395.914 373.589 394.413 380.432 400.82 382.437C403.656 371.154 406.413 360.19 409.605 347.49C411.355 353.895 412.763 359.052 414.171 364.208C419.253 348.923 415.867 333.416 416.122 317.462C419.668 323.487 423.213 329.513 426.759 335.538C427.372 335.333 427.985 335.128 428.598 334.922C428.598 319.245 428.598 303.569 428.598 287.535C435.615 292.37 435.894 301.512 441.478 308.996C443.014 293.13 440.341 278.824 439.884 264.012C442.897 267.985 445.91 271.957 449.549 276.756C449.549 270.347 449.988 264.949 449.441 259.653C448.721 252.692 447.226 245.812 446.029 238.96C446.029 238.96 445.987 239.019 446.668 239.088ZM129.728 272.198C130.089 270.79 130.451 269.383 130.812 267.976C130.455 267.853 130.098 267.73 129.741 267.608C128.327 269.09 126.912 270.572 125.498 272.054C125.34 269.872 126.005 268.063 126.488 266.207C127.365 262.842 128.484 259.487 128.86 256.058C129.33 251.775 127.013 249.565 123.228 251.261C119.016 253.148 114.867 255.94 111.768 259.324C108.951 262.401 107.639 266.836 105.528 270.596C104.941 271.644 103.984 272.57 103.007 273.297C100.749 274.978 97.6256 276.004 96.1774 278.178C90.0699 287.347 87.4975 297.734 86.7396 307.923C89.3836 309.338 91.8204 310.055 93.3846 311.636C95.1418 313.412 96.111 315.967 97.7222 318.689C103.981 313.367 101.778 305.905 104.705 300.041C104.985 303.307 105.266 306.573 105.546 309.839C106.175 310.07 106.804 310.301 107.433 310.531C116.348 298.98 123.394 286.256 129.728 272.198ZM116.172 92.1161C117.01 89.948 117.849 87.7799 119.185 84.3228C109.586 88.0322 106.583 96.9637 99.514 101.32C98.7825 99.854 98.1509 98.5886 97.2833 96.8504C95.0473 99.794 92.8287 102.285 91.1199 105.086C89.4365 107.846 87.5923 108.898 83.535 105.845C84.8179 110.703 85.6937 114.019 86.7227 117.915C90.6441 115.421 92.6469 110.25 97.2899 114.338C99.1608 111.21 100.832 108.416 102.504 105.622C102.865 105.802 103.226 105.982 103.587 106.161C103.66 107.416 103.733 108.67 103.845 110.583C110.582 104.756 115.447 97.6032 124.319 94.8545C122.457 99.221 120.936 102.787 119.415 106.354C119.809 106.54 120.202 106.727 120.595 106.913C130.169 98.8622 139.743 90.8114 149.317 82.7606C148.871 82.1774 148.425 81.5942 147.979 81.011C142.756 84.1891 137.532 87.3671 131.264 91.1809C132.768 87.0839 133.854 84.1266 134.939 81.1694C132.349 81.7819 130.706 83.09 129.126 84.4696C125.869 87.314 122.725 90.2972 119.34 92.9782C118.665 93.5124 117.123 92.9511 116.172 92.1161ZM296.693 431.321C294.843 438.129 292.993 444.936 291.163 451.666C290.021 449.038 288.749 446.11 287.477 443.182C286.936 443.354 286.394 443.525 285.853 443.697C285.853 459.23 285.853 474.763 285.853 491.16C301.978 469.866 299.865 444.79 302.75 420.803C300.821 424.069 298.892 427.335 296.693 431.321ZM202.484 378.89C206.168 368.585 207.623 357.99 206.813 346.274C201.298 347.991 203.669 354.091 200.363 356.638C198.789 349.64 197.272 342.9 195.756 336.16C195.237 336.007 194.719 335.855 194.201 335.703C193.24 337.145 191.747 338.484 191.441 340.054C190.975 342.452 191.123 345.03 191.369 347.496C192.709 360.91 199.533 373.468 197.018 387.949C198.073 387.305 198.644 387.163 198.811 386.822C199.976 384.437 201.058 382.012 202.484 378.89ZM203.961 435.168C207.903 421.316 212.579 407.606 212.165 392.764C206.382 399.025 206.059 407.754 200.809 414.662C200.809 409.483 200.809 404.304 200.809 399.126C200.186 399.173 199.563 399.221 198.94 399.269C194.789 412.347 196.607 425.078 201.732 438.495C202.764 437.134 203.24 436.507 203.961 435.168ZM86.8006 210.435C86.6246 207.296 86.7945 204.078 86.113 201.053C85.8138 199.725 83.9216 198.201 82.488 197.852C81.2541 197.55 79.2766 198.439 78.3075 199.451C77.4045 200.395 77.0999 202.184 77.0431 203.622C76.6164 214.409 78.8269 224.735 82.8564 234.695C83.1641 235.456 84.0086 235.999 85.5509 237.669C86.8055 228.533 87.9301 220.538 88.9348 212.527C88.9931 212.062 88.0778 211.475 86.8006 210.435ZM222.426 453.04C220.838 448.704 219.251 444.367 217.664 440.031C217.164 440.116 216.664 440.201 216.164 440.287C216.443 445.89 216.722 451.493 217.036 457.788C214.393 455.745 212.322 454.144 209.22 451.747C215.283 463.397 220.554 473.526 226.427 484.812C226.832 473.467 227.941 463.282 222.426 453.04ZM269.16 465.981C269.347 463.764 269.534 461.547 269.722 459.33C269.145 459.183 268.569 459.036 267.993 458.889C266.702 463.512 265.412 468.135 264.122 472.758C263.702 472.783 263.282 472.808 262.862 472.833C262.134 469.711 261.482 466.57 260.642 463.479C260.31 462.259 259.56 461.153 259 459.996C258.386 461.247 257.106 462.59 257.263 463.736C258.456 472.452 259.827 481.148 261.39 489.806C261.777 491.947 263.074 493.924 263.952 495.977C264.601 495.944 265.249 495.911 265.898 495.879C266.967 486.207 268.037 476.536 269.16 465.981ZM28.2654 236.014C28.6087 236.575 28.9521 237.136 29.6192 238.225C31.9364 232.192 34.6417 226.703 36.0236 220.9C36.7269 217.946 35.2376 214.368 34.2688 211.218C34.1024 210.677 31.3126 210.298 30.1757 210.814C25.8491 212.781 23.4074 217.705 24.4124 222.953C25.2159 227.148 26.7862 231.197 28.2654 236.014ZM275.238 489.583C275.979 489.15 277.214 488.86 277.387 488.263C281.081 475.479 280.644 462.578 278.813 448.784C277.321 449.921 275.982 450.453 275.964 451.026C275.571 463.595 275.325 476.17 275.238 489.583ZM190.322 361.292C189.052 354.237 189.052 354.237 184.933 354.561C185.755 365.478 186.513 376.408 187.493 387.318C187.597 388.483 188.991 389.533 190.546 391.69C190.546 380.779 190.546 371.467 190.322 361.292ZM93.9149 319.791C92.9917 318.056 92.0684 316.321 90.4298 313.242C86.9609 321.154 80.7116 325.965 81.466 334.047C86.6123 334.236 92.8494 327.265 93.9149 319.791ZM178.094 378.365C178.345 383.118 178.137 387.991 181.21 392.848C184.709 384.477 182.642 366.486 178.094 364.398C178.094 368.841 178.094 373.124 178.094 378.365ZM193.296 418.894C192.737 414.926 192.178 410.958 191.49 406.071C185.879 412.885 189.547 429.944 196.807 434.062C195.664 429.036 194.604 424.379 193.296 418.894ZM43.179 324.883C43.4833 327.836 43.3686 330.912 44.1926 333.712C45.3487 337.64 48.2923 339.35 51.913 338.663C51.6449 335.228 52.0359 331.917 50.983 329.157C49.9896 326.553 47.4985 324.509 45.5382 322.335C45.473 322.262 44.0157 323.444 43.179 324.883ZM124.461 108.012C122.817 110.908 121.173 113.804 119.53 116.699C120.032 117.015 120.534 117.331 121.036 117.646C128.056 112.762 132.374 105.777 136.225 98.4293C135.515 97.7713 134.806 97.1133 134.097 96.4552C131.037 100.123 127.977 103.79 124.461 108.012ZM110.964 133.259C112.346 133.452 113.727 133.645 115.236 133.856C114.65 128.426 102.652 125.239 95.7677 129.196C101.206 130.676 105.692 131.897 110.964 133.259ZM57.1593 192.321C55.8824 191.866 54.6054 191.412 52.7563 190.754C52.9621 196.001 51.8353 200.7 56.5891 204.276C59.5457 200.378 60.0237 196.787 57.1593 192.321ZM116.562 126.186C120.828 126.634 125.093 127.082 129.358 127.53C129.409 127.035 129.46 126.541 129.511 126.046C124.589 122.535 119.051 122.985 113.561 123.13C113.422 123.602 113.284 124.075 113.146 124.547C114.015 125.051 114.885 125.555 116.562 126.186ZM32.0914 205.033C33.4125 205.441 35.7204 206.458 35.9017 206.164C37.6581 203.314 37.6781 200.447 34.0377 196.814C33.1667 199.913 32.5598 202.072 32.0914 205.033ZM48.6351 197.204C48.544 196.718 48.4529 196.233 48.3618 195.747C47.0818 197.205 45.2605 198.487 44.7127 200.181C44.3497 201.304 45.8111 203.017 46.4557 204.465C47.186 203.134 48.0371 201.851 48.5961 200.451C48.8817 199.736 48.6437 198.812 48.6351 197.204ZM72.0873 340.253C75.3757 341.738 76.3817 339.511 76.2784 337.105C76.2319 336.02 74.2923 335.015 73.2116 333.974C72.7107 335.847 72.2098 337.721 72.0873 340.253ZM25.459 199.329C21.749 201.686 24.0543 204.304 24.7295 207.31C29.4558 202.12 29.5528 201.418 25.459 199.329ZM62.9826 339.293C64.373 340.177 65.7633 341.061 67.1536 341.945C67.1536 340.087 67.1536 338.228 67.1536 335.952C65.5022 336.495 64.6568 336.62 64.0002 337.04C63.5213 337.346 63.2914 338.042 62.9826 339.293ZM7.57237 178.349L7.42422 178.709C7.42422 178.709 7.73894 178.624 7.57237 178.349Z" fill="#201F1D"/>
</svg>
