<svg width="479" height="552" viewBox="0 0 479 552" fill="none" xmlns="http://www.w3.org/2000/svg">
<path d="M463.124 180.99C465.809 187.945 468.622 194.856 471.105 201.883C471.911 204.165 471.855 206.753 472.335 210.224C469.471 208.769 467.399 207.716 464.893 206.442C468.084 213.468 471.075 220.052 474.066 226.635C473.58 226.983 473.094 227.33 472.607 227.678C470.124 225.982 467.641 224.287 465.075 222.534C466.075 230.418 467.048 238.091 468.093 246.328C465.885 245.492 464.587 245.001 462.371 244.162C462.371 252.851 462.371 260.983 462.371 269.114C462.051 269.138 461.731 269.163 461.411 269.187C460.205 267.315 459 265.443 457.795 263.57C457.27 263.734 456.746 263.898 456.221 264.062C457.167 273.802 458.114 283.542 459.06 293.283C458.713 293.673 458.366 294.063 458.018 294.453C454.875 292.26 451.732 290.068 447.95 287.429C446.494 302.487 445.086 317.058 443.678 331.629C443.252 331.78 442.827 331.93 442.401 332.081C440.169 328.258 437.937 324.436 435.704 320.613C435.251 320.657 434.798 320.701 434.345 320.744C434.345 332.69 434.345 344.636 434.345 356.581C433.624 356.827 432.902 357.073 432.181 357.319C429.635 353.046 427.089 348.773 424.12 343.79C420.915 359.575 417.868 374.58 414.821 389.585C414.401 389.664 413.981 389.743 413.561 389.822C411.71 385.977 409.859 382.132 408.008 378.287C407.596 378.292 407.184 378.298 406.772 378.303C404.993 389.566 403.214 400.829 401.436 412.092C400.84 412.184 400.244 412.276 399.648 412.368C398.066 405.736 396.484 399.104 394.902 392.472C394.437 392.431 393.972 392.389 393.507 392.347C388.886 405.731 384.264 419.114 379.642 432.497C379.024 432.371 378.405 432.244 377.786 432.117C377.786 425.884 377.786 419.652 377.786 413.42C377.298 413.38 376.81 413.34 376.322 413.3C373.953 425.473 371.585 437.647 369.216 449.82C368.711 449.822 368.207 449.823 367.702 449.825C366.647 444.792 365.592 439.759 364.537 434.727C364.015 434.53 363.492 434.334 362.969 434.138C361.654 436.101 359.839 437.895 359.107 440.056C355.27 451.376 348.552 460.728 340.089 468.96C338.985 470.034 337.765 470.988 335.864 471.415C337.812 464.434 339.759 457.453 341.706 450.472C341.132 450.274 340.558 450.075 339.984 449.877C330.135 463.361 321.556 477.563 314.973 493.703C314.536 491.322 313.929 488.957 313.709 486.556C313.491 484.173 313.661 481.755 313.661 479.352C313.178 479.194 312.695 479.037 312.212 478.879C306.709 490.411 301.207 501.943 295.705 513.475C295.419 513.507 295.132 513.538 294.846 513.569C294.846 507.665 294.846 501.762 294.846 495.859C294.319 495.819 293.791 495.779 293.263 495.739C288.131 503.416 291.206 513.063 287.683 521.996C284.826 517.419 282.293 513.364 279.053 508.174C279.053 523.1 279.053 536.651 279.053 550.201C278.562 550.471 278.071 550.741 277.58 551.011C271.29 541.558 265.001 532.105 258.711 522.652C258.31 522.718 257.908 522.784 257.507 522.85C257.992 531.255 258.477 539.66 259.039 549.39C252.695 540.166 247.088 532.014 241.482 523.863C240.868 524.15 240.254 524.438 239.64 524.725C240.824 531.532 242.008 538.339 243.192 545.145C232.584 537.144 228.888 524.471 219.781 513.762C218.091 519.173 216.783 523.358 215.039 528.941C212.032 517.104 210.782 506.017 202.049 497.881C202.049 502.395 202.049 506.909 202.049 512.089C192.353 501.709 190.219 488.75 186.325 476.601C185.858 476.633 185.391 476.666 184.924 476.698C184.181 479.917 183.439 483.137 182.336 487.917C176.869 476.78 178.03 465.493 174.34 454.061C172.436 458.002 171.069 460.831 169.163 464.775C168.441 450.648 172.41 437.445 168.765 424.599C168.14 424.525 167.515 424.452 166.891 424.379C165.627 429.347 164.364 434.315 163.101 439.283C162.547 439.391 161.994 439.498 161.44 439.605C158.363 431.029 155.286 422.452 151.977 413.23C151.09 415.984 150.336 418.325 149.157 421.987C146.529 415.884 144.426 410.998 141.741 404.762C140.723 407.838 140.187 409.457 139.438 411.722C136.812 407.335 134.403 403.31 132.287 399.775C125.353 403.623 121.652 395.393 115.868 395.834C115.868 397.286 115.868 398.748 115.868 400.284C110.064 400.284 104.277 400.284 98.1003 400.284C98.0185 401.088 97.902 402.232 97.7547 403.68C91.0894 402.846 84.5558 402.028 77.6331 401.161C78.6799 402.81 79.4034 403.95 80.8823 406.28C75.2572 404.66 70.9215 403.148 66.4633 402.235C64.1485 401.761 61.6133 402.473 59.185 402.402C57.7628 402.361 56.2312 402.09 54.961 401.48C47.7874 398.036 42.6255 392.664 39.3522 385.036C39.1743 386.62 38.9964 388.205 38.8185 389.789C38.455 389.937 38.0914 390.084 37.7278 390.232C36.7922 388.706 35.2794 387.272 35.0164 385.638C33.5141 376.299 31.639 366.938 31.2992 357.533C31.1404 353.137 33.3304 348.065 35.9223 344.311C39.1703 339.608 40.6348 335.002 40.291 329.439C40.0665 325.806 40.1907 322.101 40.6663 318.496C40.9024 316.706 42.2825 315.067 43.145 313.36C44.6429 314.485 46.2371 315.506 47.6028 316.773C48.4301 317.541 48.7271 318.895 49.574 319.623C51.1401 320.97 53.4247 323.39 54.5397 322.983C57.452 321.918 60.0515 320.275 60.3709 315.944C60.6601 312.023 63.1409 308.264 64.8245 304.006C63.4691 304.88 62.1393 305.737 60.7478 306.633C62.8507 300.543 64.9516 294.458 67.0526 288.373C66.4785 288.108 65.9044 287.844 65.3302 287.579C64.4195 288.577 63.5087 289.576 62.5506 290.626C60.2298 287.247 65.6145 282.485 60.8093 280.174C61.4644 273.562 62.116 266.984 62.7677 260.406C61.9858 260.21 61.204 260.015 60.4221 259.82C59.3183 262.482 58.2145 265.145 57.1107 267.808C56.7 267.697 56.2894 267.586 55.8787 267.476C56.3522 262.483 56.8256 257.49 57.3595 251.86C55.6616 252.92 54.4797 253.658 53.0759 254.534C53.0023 248.748 55.8437 242.702 50.6677 236.444C50.6677 240.554 50.6677 243.54 50.6677 246.526C50.2489 246.59 49.8301 246.655 49.4114 246.719C48.4048 242.866 47.3984 239.013 46.2316 234.547C45.5208 236.081 44.9878 237.231 43.8753 239.632C42.1158 233.947 40.6542 229.225 39.1927 224.502C38.8431 224.466 38.4935 224.43 38.144 224.395C36.1096 232.531 34.0752 240.667 31.8977 249.376C23.7639 242.529 19.8447 233.863 20.2256 224.455C20.6491 213.998 18.4854 206.227 9.82652 199.428C2.9927 194.061 0.895 185.414 0.894619 176.439C0.894104 164.293 0.263079 152.149 0.0103984 140.001C-0.258619 127.069 4.69784 116.268 14.2213 107.733C21.0142 101.646 29.5921 100.789 37.784 103.2C47.2729 105.993 56.3783 110.166 65.5131 114.061C73.5221 117.477 75.4717 116.903 77.6281 108.3C78.9857 102.884 79.458 97.2455 80.4585 90.8713C81.929 92.7176 83.2015 94.2634 84.4153 95.854C85.5966 97.402 86.7177 98.9958 89.0436 102.186C92.2118 90.0303 101.648 85.2273 109.998 78.6805C110.299 79.6672 110.565 80.5359 111.184 82.5645C117.255 77.8596 122.995 73.411 128.735 68.9623C129.122 69.26 129.509 69.5576 129.896 69.8553C128.914 72.536 127.931 75.2166 126.681 78.6265C131.232 77.0391 135.265 75.3291 139.465 74.305C141.342 73.8474 143.548 74.9361 145.616 75.0097C147.336 75.0708 149.227 75.048 150.77 74.4078C155.153 72.5899 159.046 69.627 164.39 70.7147C165.868 71.0154 167.818 69.0136 169.546 68.0595C171.347 67.0649 173.142 66.0596 175.655 64.6613C175.488 66.8331 175.398 68.0053 175.263 69.7721C188.803 62.958 201.808 56.4132 214.813 49.8684C215.05 50.1697 215.286 50.471 215.523 50.7723C214.686 52.2263 213.849 53.6802 213.012 55.1342C213.195 55.5295 213.377 55.9249 213.559 56.3202C221.461 52.8765 229.363 49.4327 237.265 45.989C237.41 46.3122 237.554 46.6354 237.699 46.9586C236.706 48.4569 235.712 49.9552 234.718 51.4534C234.936 51.9075 235.153 52.3616 235.371 52.8157C241.076 50.5634 246.895 48.5595 252.448 45.981C256.957 43.8876 261.061 40.9344 265.524 38.7259C266.953 38.0185 268.958 38.472 272.067 38.3333C272.601 37.75 274.125 36.0869 276.378 33.6291C276.772 36.4716 277.041 38.4049 277.309 40.3381C277.668 40.4733 278.028 40.6084 278.387 40.7435C281.65 33.9515 284.912 27.1594 288.689 19.2977C289.756 22.0658 290.362 23.6374 291.053 25.4304C294.048 20.4664 296.863 15.7988 299.679 11.1312C300.138 11.3095 300.597 11.4879 301.056 11.6663C301.464 12.9786 301.871 14.291 301.996 14.6941C306.052 11.064 310.013 6.99686 314.535 3.69874C316.704 2.11701 319.146 -1.22239 323.046 2.25788C324.222 3.30712 327.759 1.51206 330.237 1.34335C334.673 1.04127 339.621 -2.58817 343.234 3.52596C343.836 4.54467 346.648 4.28653 348.448 4.56173C352.156 5.12863 355.869 5.65725 360.425 6.32549C358.76 8.19809 357.84 9.23316 356.557 10.6762C367.693 16.0376 376.317 24.126 383.82 34.3624C380.713 34.1675 377.605 33.9726 374.195 33.7587C383.266 44.7064 387.122 57.3188 388.24 71.7517C386.628 70.9248 385.652 70.4692 384.721 69.9335C383.873 69.4454 383.076 68.8703 382.136 68.2552C382.704 75.709 387.334 79.7098 400.314 83.9027C398.594 87.7243 401.202 88.6086 404.197 89.9372C410.962 92.9376 417.529 96.3974 424.085 99.8442C425.378 100.524 426.259 101.985 427.33 103.085C427.078 103.428 426.826 103.771 426.574 104.114C422.419 102.38 418.264 100.646 414.034 98.8814C414.533 102.68 415.959 104.11 422.037 106.944C425.621 108.615 429.228 110.237 432.825 111.882C432.662 112.326 432.5 112.771 432.338 113.215C429.932 112.989 427.526 112.764 425.12 112.538C438.17 118.587 450.335 125.211 456.409 139.616C453.104 137.809 449.799 136.002 446.494 134.195C446.107 134.604 445.719 135.013 445.331 135.422C453.55 142.676 461.648 150.023 466.829 161.248C464.236 160.577 462.723 160.186 460.516 159.677C459.718 160.013 459.614 160.468 459.51 160.923C463.53 165.523 467.684 170.014 471.522 174.761C474.034 177.869 476.088 181.348 478.348 184.661C477.973 185.093 477.598 185.526 477.224 185.958C473.163 184.053 469.103 182.149 464.473 179.974C463.643 180.133 463.384 180.561 463.124 180.99ZM13.7448 121.419C13.5377 120.866 13.3306 120.313 12.4799 120.056C12.3112 120.725 12.1425 121.394 11.9738 122.064C12.3112 121.949 12.6486 121.835 13.7448 121.419ZM55.8493 229.92C55.6478 230.284 55.4463 230.648 55.487 231.687C62.2126 244.71 68.1683 257.961 70.5873 272.633C72.932 286.855 75.315 300.942 68.6583 314.704C68.2771 315.492 68.2865 316.469 68.1141 317.358C73.2263 312.746 75.6168 306.922 75.7905 300.382C76.2812 281.904 73.6168 263.788 67.0365 246.554C64.7726 240.625 59.8044 235.728 55.8493 229.92ZM126.053 288.632C119.911 298.103 113.921 307.677 107.588 317.019C99.711 328.64 90.1354 338.357 76.3617 342.957C76.1892 343.015 76.16 343.502 75.7668 344.674C79.9621 343.93 83.7503 343.258 87.5385 342.586C87.6163 342.81 87.6941 343.034 87.7719 343.258C84.4642 345.571 81.1565 347.884 77.7172 350.29C90.2797 361.852 107.486 359.33 113.827 344.63C119.649 331.135 123.76 316.901 128.568 302.973C128.845 302.17 128.604 301.189 128.604 298.89C125.444 302.486 123.122 305.127 120.801 307.768C120.473 307.521 120.145 307.274 119.818 307.027C122.389 301.022 124.961 295.016 127.836 288.498C127.836 287.954 127.836 287.41 127.836 285.88C127.132 287.277 126.881 287.775 126.053 288.632ZM446.582 238.615C449.956 241.696 453.331 244.777 456.945 248.077C457.21 239.26 451.756 232.463 449.405 224.128C452.462 226.164 455.519 228.2 458.576 230.236C458.585 226.789 457.671 223.767 456.41 220.898C455.026 217.751 453.323 214.744 452.015 211.43C452.015 211.43 452.273 211.185 453.05 211.239C455.218 211.815 457.387 212.392 458.779 212.762C455.529 203.808 452.287 194.874 449.044 185.94C449.426 185.651 449.808 185.361 450.189 185.072C454.238 187.97 458.287 190.869 462.336 193.768C462.705 193.469 463.074 193.17 463.443 192.871C458.857 185.517 454.27 178.162 449.684 170.808C449.831 170.514 449.979 170.221 450.127 169.928C454.657 172.141 459.188 174.354 463.718 176.568C464.031 176.136 464.344 175.704 464.656 175.272C455.514 166.095 446.372 156.917 437.23 147.74C437.572 147.16 437.914 146.579 438.256 145.999C442.318 147.351 446.381 148.702 450.949 150.368C451.243 150.303 451.537 150.239 451.831 150.175C451.605 149.879 451.378 149.584 450.933 148.654C444.627 142.135 438.322 135.615 431.63 128.696C434.582 128.55 436.735 128.443 438.889 128.337C438.936 128.008 438.982 127.68 439.029 127.351C431.623 124.128 424.217 120.906 416.811 117.683C416.585 118.14 416.359 118.596 416.133 119.053C422.004 125.236 427.874 131.418 434.563 138.463C428.252 138.463 423.2 138.463 418.147 138.463C417.834 138.986 417.522 139.509 417.209 140.032C425.615 146.188 434.022 152.343 442.428 158.499C442.167 158.904 441.907 159.309 441.646 159.715C438.067 158.9 434.488 158.084 430.91 157.269C430.472 157.865 430.034 158.461 429.596 159.057C434.87 163.637 440.144 168.218 445.419 172.799C445.075 173.274 444.732 173.749 444.389 174.225C440.066 172.522 435.743 170.82 430.485 168.75C436.656 178.67 444.429 186.459 445.864 197.408C445.468 197.697 445.073 197.985 444.678 198.274C440.977 195.123 437.276 191.972 433.883 189.084C435.729 196.42 437.83 204.766 439.931 213.112C439.466 213.322 439.001 213.531 438.536 213.74C423.979 203.141 413.249 189.452 405.063 172.012C409.712 174.346 413.081 176.037 416.45 177.728C409.595 164.557 399.239 155.705 385.932 150.132C386.071 149.572 386.21 149.012 386.349 148.452C391.717 147.99 397.086 147.527 403.082 147.01C397.073 140.404 389.239 141.21 382.001 139.185C385.289 137.515 388.232 136.019 391.176 134.524C391.089 134.126 391.003 133.729 390.916 133.331C379.808 133.71 368.993 132.81 358.077 126.651C363.821 125.958 368.294 125.419 372.766 124.88C372.909 124.421 373.052 123.962 373.195 123.502C366.318 118.222 359.441 112.943 352.566 107.664C355.202 107.505 358.037 107.334 361.923 107.1C353.353 97.9914 343.632 93.3651 330.876 92.1515C335.031 87.7829 338.067 84.5901 341.104 81.3972C340.819 80.935 340.534 80.4728 340.25 80.0106C335.37 81.1579 330.489 82.3052 324.503 83.7126C327.398 78.5234 329.786 74.2433 332.335 69.6757C323.578 68.4528 319.552 75.0006 314.661 79.947C313.53 76.5638 312.624 73.8538 311.564 70.6833C306.375 81.4464 308.709 91.2004 317.801 97.33C318.481 93.9864 319.128 90.8073 319.538 88.7915C326.688 90.7141 328.971 99.7469 337.694 99.277C334.602 100.511 331.51 101.744 327.653 103.283C336.581 109.678 347.966 109.947 355.923 118.055C347.045 118.843 339.425 119.519 331.804 120.196C331.786 120.578 331.769 120.961 331.751 121.344C341.294 125.844 350.837 130.344 360.618 134.957C358.824 135.723 357.492 136.291 355.379 137.194C362.78 142.687 371.715 140.956 380.121 144.583C374.223 146.291 369.586 147.633 363.623 149.359C374.874 153.924 384.64 157.887 394.406 161.85C394.102 162.717 393.799 163.584 393.496 164.451C376.453 158.181 357.403 158.846 340.791 148.114C347.017 147.461 352.35 146.901 357.683 146.341C357.691 145.866 357.7 145.39 357.708 144.915C345.418 143.336 334.912 137.812 325.147 130.383C327.548 130.383 329.949 130.383 333.654 130.383C326.03 125.501 319.593 121.378 312.172 116.625C317.59 115.51 321.689 114.666 325.788 113.823C325.729 113.542 325.67 113.262 325.611 112.981C317.281 111.734 308.95 110.487 300.62 109.24C300.632 108.664 300.645 108.087 300.657 107.51C303.486 106.16 306.316 104.811 309.145 103.461C309.052 103.115 308.958 102.768 308.865 102.421C303.773 101.742 298.681 101.063 292.231 100.203C295.837 99.266 298.054 98.69 301.361 97.8305C298.626 94.1445 295.773 91.1448 293.956 87.6121C292.119 84.0425 291.309 79.9447 290.05 76.0782C290.566 75.8828 291.083 75.6873 291.6 75.4918C292.897 77.5116 294.086 79.6116 295.521 81.5285C296.96 83.4525 298.644 85.1939 300.221 87.0153C300.688 86.716 301.155 86.4167 301.622 86.1174C297.286 77.4629 293.518 68.5135 296.721 58.9054C299.641 50.1438 303.583 41.7229 307.075 33.1519C307.627 33.3181 308.18 33.4843 308.732 33.6505C308.732 37.0791 308.732 40.5076 308.732 45.4282C314.484 38.9744 314.611 30.3397 322.643 25.5048C321.559 29.3066 320.871 31.7204 320.183 34.1342C320.556 34.4558 320.93 34.7774 321.303 35.099C324.372 32.3019 327.193 29.1463 330.578 26.8085C333.975 24.4628 337.935 22.9326 342.27 20.7292C338.814 27.0397 335.967 32.2382 332.609 38.3711C341.017 37.5666 347.296 32.1848 355.841 36.031C349.302 38.0069 344.748 40.914 343.062 46.6214C347.634 47.3475 352.357 47.1635 356.128 48.9674C359.677 50.6647 362.223 54.459 365.21 57.3307C364.89 57.6636 364.57 57.9964 364.25 58.3293C356.247 53.6213 347.906 53.5333 343.839 58.3173C349.292 63.4816 358.752 64.1278 361.659 73.5874C358.025 72.3029 355.233 71.316 351.123 69.8632C356.122 81.0606 363.427 87.8259 374.032 92.6886C371.694 84.7559 369.461 77.1804 366.966 68.713C370.476 71.6982 373.334 74.1285 376.192 76.5589C376.682 76.2842 377.171 76.0095 377.66 75.7347C372.945 65.0751 368.229 54.4155 363.513 43.7558C363.965 43.4425 364.417 43.1293 364.868 42.816C368.862 46.0193 372.856 49.2226 376.849 52.4258C377.23 51.9506 377.611 51.4753 377.992 51.0001C373.276 40.8299 366.097 32.7705 355.395 26.9096C359.479 26.3134 362.436 25.8816 366.664 25.2642C361.867 22.0026 358.426 18.9409 354.418 17.1412C350.348 15.313 345.718 14.7296 341.379 13.613C341.822 12.6839 342.49 11.282 343.43 9.31334C335.838 7.6023 330.408 11.8512 324.309 14.7086C324.548 12.3573 324.732 10.5477 324.916 8.73816C324.349 8.39644 323.781 8.05473 323.214 7.71301C318.659 13.1181 314.105 18.5231 309.395 24.1133C309.064 22.5203 308.808 21.2912 308.552 20.0621C308.149 19.8569 307.746 19.6517 307.342 19.4465C304.442 24.2079 301.542 28.9692 298.237 34.3946C297.68 31.1735 297.296 28.9523 296.911 26.731C296.502 26.6463 296.092 26.5615 295.682 26.4767C293.523 32.6734 291.363 38.87 288.81 46.1945C286.963 42.9712 285.888 41.0951 284.814 39.2191C284.436 39.2956 284.059 39.3721 283.681 39.4486C283.681 53.4905 283.681 67.5324 283.681 81.5742C283.382 81.5908 283.082 81.6074 282.782 81.624C280.609 77.3988 278.437 73.1735 276.53 69.4648C270.157 75.468 264.432 80.8606 258.481 86.4656C262.921 85.9138 267.114 85.3926 271.308 84.8714C271.539 85.5131 271.77 86.1548 272.001 86.7965C266.559 90.5865 261.117 94.3764 255.21 98.4907C263.076 101.746 270.503 104.819 277.931 107.892C277.76 108.301 277.589 108.711 277.418 109.12C270.682 109.557 263.946 109.993 257.21 110.43C257.164 111.085 257.118 111.74 257.072 112.396C263.193 115.102 269.314 117.809 275.435 120.516C275.225 120.994 275.015 121.472 274.805 121.95C261.295 118.75 247.784 115.549 234.274 112.348C234.349 111.987 234.425 111.626 234.5 111.264C240.68 110.152 246.86 109.04 253.04 107.928C253.016 107.464 252.992 107.001 252.968 106.538C243.382 103.774 233.795 101.011 223.253 97.9725C228.306 96.3531 232.695 94.9464 238.437 93.1063C228.521 88.8008 219.848 92.1584 210.313 92.8857C212.89 89.8148 214.801 87.5386 216.711 85.2623C216.495 84.9894 216.278 84.7165 216.062 84.4436C207.839 86.6331 199.616 88.8226 191.392 91.012C191.231 90.4926 191.07 89.9731 190.909 89.4537C196.667 84.8796 199.765 77.2755 208.191 74.2825C206.644 77.1395 205.573 79.1187 204.502 81.0979C204.744 81.421 204.987 81.744 205.23 82.0671C213.043 77.3462 220.857 72.6254 228.671 67.9045C228.905 68.3037 229.14 68.7028 229.374 69.102C228.427 71.0779 227.481 73.0539 226.363 75.3857C235.25 73.4345 250.607 60.4018 251.722 53.8346C248.794 55.4754 246.159 56.9521 242.458 59.0259C243.274 56.8408 243.661 55.8047 244.048 54.7686C243.737 54.3399 243.427 53.9113 243.116 53.4826C234.835 58.3126 226.553 63.1426 216.987 68.7221C219.145 64.4925 220.651 61.5411 222.157 58.5897C210.583 63.6506 203.885 75.1224 191.31 80.615C193.81 75.415 195.606 71.6798 197.401 67.9447C196.928 67.5137 196.455 67.0827 195.983 66.6517C192.07 69.784 188.159 72.9177 184.245 76.0485C180.388 79.1337 177.598 83.755 171.494 85.2331C172.216 82.5094 172.711 80.6417 173.205 78.7739C172.873 78.536 172.54 78.2981 172.207 78.0602C163.976 86.2011 155.744 94.342 147.513 102.483C147.146 102.183 146.78 101.883 146.413 101.584C146.991 99.5398 147.57 97.4959 148.199 95.2715C142.988 96.1863 138.006 100.443 134.354 106.53C134.656 106.637 134.957 106.744 135.975 106.954C136.768 106.841 137.561 106.729 138.894 106.54C136.571 111.452 134.455 116.07 139.217 120.324C139.9 119.381 140.556 118.477 141.139 117.672C142.988 118.976 144.534 120.066 145.793 120.954C150.055 110.702 156.856 103.882 166.958 100.758C173.047 98.8759 179.351 97.6906 186.045 96.0747C186.045 98.2367 186.045 99.6136 186.045 100.762C191.57 101.465 196.738 102.122 201.906 102.78C201.946 103.122 201.986 103.465 202.025 103.807C199.763 104.872 197.501 105.938 194.68 107.266C204.038 110.239 212.862 112.798 217.793 122.723C214.312 121.975 211.648 121.402 208.983 120.829C208.782 121.102 208.58 121.376 208.379 121.649C213.856 126.84 219.334 132.03 224.811 137.22C224.312 137.433 223.814 137.646 223.315 137.858C223.697 139.536 223.724 141.412 224.532 142.85C226.387 146.151 228.622 149.238 230.703 152.412C230.226 152.798 229.749 153.183 229.273 153.568C221.881 149.088 214.49 144.607 206.197 139.581C209.108 139.581 210.821 139.581 214.263 139.581C210.322 136.088 207.429 133.524 204.05 130.529C206.548 130.529 208.146 130.529 210.593 130.529C206.452 122.045 198.633 119.1 190.244 114.851C194.78 114.61 197.868 114.445 200.955 114.281C200.955 113.784 200.955 113.287 200.955 112.79C195.029 109.302 188.224 111.147 181.873 110.324C181.764 109.074 181.66 107.889 181.598 107.19C176.864 107.559 172.541 107.896 168.302 108.262C168.302 108.262 168.221 108.242 168.921 107.995C169.585 107.004 170.25 106.012 170.914 105.021C170.562 104.579 170.209 104.138 169.856 103.697C167.632 105.065 165.274 106.258 163.218 107.843C160.5 109.938 157.795 112.141 155.53 114.693C154.342 116.031 154.105 118.213 153.44 120.015C155.434 120.203 157.692 121.076 159.365 120.431C162.379 119.267 165.042 117.195 167.852 115.503C167.839 116.051 167.826 116.599 167.813 117.147C170.301 117.707 172.773 118.36 175.282 118.802C178.206 119.316 181.162 119.645 184.105 120.054C184.062 120.372 184.019 120.689 183.976 121.006C183 121.482 182.024 121.959 180.703 122.603C183.075 124.66 185.124 126.438 187.78 128.743C183.813 130.641 180.431 132.259 177.796 133.52C175.09 132.741 172.993 132.138 170.717 130.733C173.821 129.558 176.926 128.383 180.03 127.207C179.909 126.293 179.789 125.38 179.668 124.466C173.794 123.923 167.92 123.38 162.046 122.838C161.733 123.673 161.421 124.508 161.109 125.343C163.184 126.758 165.293 128.126 167.315 129.613C167.947 130.078 168.344 130.863 168.058 131.401C163.762 128.68 162.23 131.583 160.838 134.498C162.417 137.428 163.808 140.01 164.793 141.838C163.012 143.819 161.843 145.119 160.207 146.939C154.954 142.755 149.57 138.468 144.186 134.181C143.986 134.435 143.786 134.688 143.587 134.942C144.081 136.054 144.575 137.165 145.395 139.01C138.612 135.521 134.053 128.52 125.541 130.556C129.298 135.477 132.69 139.921 135.728 144.797C135.63 144.955 135.531 145.113 134.744 145.039C129.757 142.969 124.77 140.898 119.782 138.828C119.559 139.234 119.336 139.641 119.113 140.047C122.533 143.631 125.953 147.214 129.547 150.98C127.876 151.875 126.524 152.599 125.166 153.326C127.724 156.34 130.045 159.074 132.365 161.807C132.068 162.087 131.771 162.367 131.473 162.647C128.618 161.998 125.762 161.349 122.906 160.7C122.702 161.084 122.497 161.467 122.293 161.85C126.298 167.106 130.302 172.363 134.787 178.249C128.629 177.59 127.129 176.37 123.637 171.925C118.727 165.675 113.494 159.678 108.391 153.579C107.477 152.486 106.526 151.424 105.592 150.347C105.772 150.047 105.951 149.747 106.13 149.447C109.178 150.473 112.226 151.498 115.274 152.523C111.044 144.172 104.271 139.262 96.9871 134.968C96.7304 135.289 96.4738 135.61 96.2172 135.931C96.6337 137.348 97.0501 138.765 97.8369 141.44C91.9386 137.835 87.2303 134.957 81.7309 131.596C81.654 140.026 77.0535 144.938 71.4707 150.027C69.6169 151.865 67.7632 153.702 65.1937 155.506C61.374 158.05 57.5543 160.594 53.7346 163.138C60.4489 155.438 67.8244 148.754 75.0558 141.918C79.3412 137.866 80.2017 133.478 76.4442 129.171C71.8523 123.909 67.6152 117.105 58.5739 119.373C57.5682 119.626 56.1072 118.593 55.027 117.895C53.3571 116.814 51.9091 115.39 50.2357 114.316C39.4821 107.416 24.8413 104.335 15.5396 115.874C14.8957 116.672 14.6014 117.753 14.1445 118.703C17.2374 117.561 19.1972 115.505 21.5765 114.235C24.1296 112.871 27.0769 112.246 30.6099 111.04C29.8934 112.306 29.7652 112.835 29.4295 113.081C20.4075 119.691 23.5154 129.513 28.4431 135.86C28.5772 136.033 29.4114 135.662 29.9018 135.528C29.9018 135.528 29.8847 135.51 29.0182 135.978C29.7544 137.739 30.4906 139.5 31.4006 141.676C23.3181 142.325 21.3977 148.038 20.4015 154.442C19.4444 160.594 21.9522 164.114 28.1915 164.703C32.3849 165.098 36.6459 164.778 40.9661 164.778C36.0643 172.861 33.0544 174.174 24.8177 171.77C21.9544 170.934 19.0967 170.027 16.3316 168.917C9.27586 166.082 8.65254 164.71 13.013 158.465C17.3923 152.193 20.5784 145.512 21.5447 137.986C22.1582 133.208 23.7391 128.02 18.9204 123.555C18.733 124.033 18.5456 124.511 18.4273 125.855C19.0746 137.287 17.941 147.957 8.01181 155.882C2.53488 160.253 4.13286 168.536 10.5689 171.189C13.1708 172.261 15.941 172.942 18.4985 174.102C27.1557 178.027 35.3334 178.507 43.2015 171.641C43.4071 171.743 43.6128 171.845 43.4524 172.552C41.1861 174.876 38.9198 177.201 35.6569 180.547C44.5516 181.224 51.9886 181.791 59.4256 182.357C52.1059 183.479 44.8596 183.238 37.6378 183.555C31.8581 183.809 26.6192 185.737 22.5895 190.318C18.8082 194.618 17.0604 194.482 14.0171 189.589C11.9614 186.284 10.3286 182.715 8.50666 179.265C8.58166 188.222 13.0781 194.624 19.6931 200.319C20.8562 198.927 21.9344 198.048 22.4796 196.913C24.7167 192.255 28.6166 189.841 33.4525 189.235C54.8422 186.555 75.6244 187.618 94.3859 199.984C95.7772 200.901 97.2125 201.751 98.6273 202.633C98.8578 202.311 99.0882 201.989 99.3187 201.668C97.0271 199.015 94.7354 196.362 92.4438 193.709C93.0171 193.141 93.5904 192.572 94.1637 192.004C99.2048 196.314 104.246 200.625 109.407 205.037C109.745 204.508 110.296 203.647 110.953 202.62C114.692 206.043 118.181 209.237 121.89 212.633C122.296 211.35 122.609 210.364 123.115 208.765C125.428 213.521 127.45 217.676 129.472 221.832C129.735 221.709 129.998 221.586 130.261 221.463C130.099 218.316 129.938 215.17 129.776 212.023C130.12 211.98 130.464 211.936 130.808 211.893C132.887 221.267 134.966 230.642 137.045 240.017C137.545 239.967 138.044 239.917 138.544 239.867C139.218 238.84 139.892 237.813 140.538 236.829C141.121 250.163 141.695 263.273 142.279 276.612C138.719 275.856 138.774 278.313 139.167 281.076C139.495 283.381 139.845 285.691 140.005 288.011C140.118 289.647 140.496 292.407 139.783 292.773C134.625 295.425 136.902 300.195 136.212 304.038C135.647 307.179 135.533 310.4 135.219 313.586C134.769 313.547 134.319 313.507 133.868 313.467C133.868 311.863 133.943 310.254 133.848 308.655C133.75 307.013 133.486 305.38 133.294 303.744C132.845 303.729 132.396 303.715 131.947 303.7C128.173 316.78 124.399 329.86 120.626 342.939C121.216 343.248 121.805 343.557 122.395 343.865C125.546 338.973 128.697 334.08 131.848 329.187C132.201 329.372 132.554 329.557 132.907 329.743C132.559 332.426 132.211 335.109 131.863 337.792C132.318 338.046 132.773 338.3 133.227 338.554C134.136 337.388 135.6 336.333 135.861 335.037C137.357 327.596 138.763 320.124 139.786 312.607C140.251 309.185 139.617 305.521 145.471 306.653C145.471 300.235 145.471 294.42 145.471 288.605C145.811 288.532 146.151 288.46 146.491 288.388C148.349 291.517 150.208 294.646 152.066 297.775C152.646 297.599 153.226 297.422 153.807 297.246C152.174 289.093 150.542 280.941 148.91 272.788C149.421 272.39 149.933 271.992 150.445 271.594C152.004 274.005 153.563 276.415 155.122 278.826C155.519 278.548 155.916 278.269 156.314 277.991C155.529 275.322 154.625 272.681 153.995 269.976C153.405 267.444 153.107 264.844 152.68 262.274C160.245 271.347 163.12 281.737 163.692 293.368C161.503 292.22 159.82 291.337 156.727 289.715C156.727 298.684 156.727 306.573 156.727 314.461C156.36 314.411 155.994 314.36 155.628 314.31C153.873 310.896 152.118 307.483 150.1 303.558C148.512 315.545 147.045 326.614 145.579 337.683C145.132 337.62 144.685 337.558 144.238 337.495C143.693 335.877 143.148 334.259 142.382 331.985C135.684 339.291 134.858 350.319 124.813 354.558C124.998 351.725 125.162 349.225 125.325 346.725C124.743 346.311 124.161 345.896 123.579 345.481C122.288 347.33 121.113 349.277 119.67 350.998C118.406 352.506 117.05 354.135 115.376 355.065C105.164 360.741 94.5695 362.756 83.354 357.935C77.0984 355.247 70.9369 352.121 64.4213 350.319C58.2834 348.622 51.7565 347.999 45.3623 347.685C41.4844 347.495 37.8704 349.903 37.6338 354.081C37.3799 358.566 38.4368 363.126 38.9217 367.653C45.1746 368.587 43.3919 374.228 44.7799 377.919C45.7971 380.624 46.0951 383.6 46.7136 386.455C47.1129 386.4 47.5121 386.345 47.9114 386.29C48.2982 383.995 48.685 381.7 49.0718 379.405C49.4836 379.29 49.8954 379.176 50.3072 379.062C52.0223 382.319 53.6268 385.641 55.4836 388.815C57.3263 391.965 59.1431 395.344 64.0841 395.445C62.9543 392.925 62.0753 390.963 61.6862 388.692C61.832 388.565 61.9779 388.438 62.8119 388.424C68.8291 392.748 75.0205 396.532 83.9251 395.263C81.8363 393.475 80.4698 392.306 78.445 390.573C80.1191 390.861 80.9097 391.032 81.7093 391.13C88.1421 391.914 94.5767 392.684 100.712 393.952C100.966 394.037 101.221 394.121 101.476 394.206C101.282 393.984 101.088 393.763 100.715 392.881C98.7668 391.326 96.8188 389.772 94.2042 387.685C100.156 388.455 105.005 389.083 109.855 389.711C109.958 389.071 110.061 388.431 110.165 387.792C99.6146 384.911 89.0645 382.03 77.6304 378.908C78.2392 381.19 78.5322 382.288 78.961 383.895C74.3361 382.298 70.2512 380.888 65.754 379.335C66.5766 382.12 67.1833 384.174 67.7901 386.228C67.3034 386.495 66.8168 386.763 66.3301 387.03C63.4042 383.109 60.4782 379.189 57.3645 375.017C56.8143 377.198 56.4147 378.782 56.0151 380.367C55.6696 380.347 55.324 380.328 54.9785 380.309C53.7947 375.638 52.6109 370.967 51.2696 365.674C48.9118 367.485 47.4441 368.612 45.3478 370.222C44.9057 366.384 44.0717 363.253 44.3645 360.231C44.5581 358.232 45.9458 355.601 47.5862 354.722C48.9498 353.991 51.9761 354.804 53.3575 355.99C56.2278 358.455 58.4328 361.681 61.0411 364.472C62.1256 365.633 63.7037 367.483 64.7806 367.308C70.4567 366.39 74.0609 370.222 78.4158 372.448C82.3294 374.448 86.4642 376.016 90.5015 377.774C90.7375 377.28 90.9735 376.787 91.2095 376.293C87.0308 373.097 82.852 369.901 78.6732 366.706C89.3402 368.495 99.5482 370.84 109.385 374.253C118.201 377.312 126.169 377.613 133.676 371.446C133.867 371.289 134.299 371.426 135.643 371.426C137.069 374.542 138.658 378.015 140.739 382.563C146.869 374.256 148.234 364.72 151.605 355.461C153.512 358.933 155.288 362.169 157.556 366.299C159.313 355.035 160.902 344.849 162.491 334.662C162.797 334.636 163.103 334.611 163.41 334.586C165.727 339.704 168.044 344.822 170.362 349.939C170.91 349.885 171.459 349.831 172.007 349.777C172.465 337.337 172.923 324.897 173.432 311.063C177.005 317.814 179.906 323.294 182.807 328.774C183.11 328.647 183.414 328.52 183.717 328.393C183.717 314.815 183.717 301.237 183.717 287.659C184.149 287.521 184.58 287.383 185.012 287.245C187.399 293.015 189.786 298.785 192.667 305.749C194.868 291.698 196.508 279.025 192.98 265.906C196.633 270.171 200.287 274.436 203.941 278.701C204.512 278.431 205.082 278.16 205.653 277.89C204.743 273.27 204.172 268.55 202.83 264.06C201.435 259.388 199.296 254.938 197.482 250.391C197.773 250.19 198.064 249.988 198.354 249.787C202.427 252.625 206.5 255.463 210.573 258.301C210.724 254.042 210.183 250.413 208.931 247.048C207.715 243.779 205.769 240.781 204.141 237.666C213.721 238.068 220.029 259.07 216.508 279.959C214.407 276.493 212.566 273.457 210.726 270.421C210.35 270.578 209.973 270.736 209.597 270.894C210.232 281.325 210.866 291.756 211.606 303.916C208.013 299.849 205.268 296.741 201.724 292.728C202.525 306.921 203.255 319.832 203.984 332.742C204.732 332.811 205.48 332.88 206.228 332.949C207.517 326.167 208.806 319.385 210.096 312.603C210.423 312.617 210.75 312.631 211.077 312.645C213.132 330.834 215.188 349.022 217.243 367.21C217.757 367.251 218.271 367.293 218.785 367.334C220.871 353.983 222.957 340.632 225.173 326.445C228.54 337.693 231.631 348.019 234.722 358.345C240.691 339.503 237.724 320.338 240.061 300.401C244.425 309.706 248.307 317.981 252.188 326.257C252.905 308.453 248.879 291.547 243.149 274.909C243.674 274.776 244.199 274.643 244.723 274.51C250.837 283.043 256.95 291.577 263.064 300.11C263.706 299.799 264.349 299.488 264.991 299.177C262.638 285.103 260.286 271.03 257.934 256.957C258.355 256.768 258.777 256.578 259.199 256.389C264.716 265.517 270.233 274.644 275.75 283.772C276.341 283.516 276.932 283.259 277.523 283.003C273.393 267.165 269.264 251.327 265.134 235.488C265.428 235.267 265.723 235.046 266.018 234.825C271.468 240.715 276.918 246.605 282.368 252.495C282.715 252.26 283.062 252.025 283.41 251.79C278.075 236.793 272.74 221.797 267.406 206.801C267.827 206.551 268.248 206.301 268.669 206.051C274.804 211.686 280.94 217.321 287.076 222.956C287.45 222.668 287.825 222.38 288.199 222.092C284.608 207.192 275.783 193.993 272.558 178.974C273 178.723 273.442 178.473 273.885 178.222C279.422 183.171 284.959 188.12 290.496 193.069C290.955 192.68 291.415 192.292 291.874 191.904C288.671 179.35 275.507 172.187 273.682 157.843C279.884 162.344 285.864 166.685 293.157 171.978C287.784 160.839 283.004 150.93 278.676 140.699C278.816 140.578 278.957 140.458 279.762 140.502C282.509 142.877 285.858 144.827 287.894 147.705C295.43 158.356 301.086 170.022 304.568 182.631C305.853 187.285 306.543 192.102 307.505 196.845C307.113 196.983 306.721 197.122 306.329 197.26C303.457 194.052 300.585 190.844 297.713 187.636C300.805 199.647 306.623 210.719 303.48 224.019C300.088 219.03 296.697 214.041 293.306 209.053C297.185 222.691 302.852 235.275 302.956 250.493C297.986 245.076 293.87 240.59 289.754 236.103C289.388 236.377 289.022 236.65 288.656 236.924C292.876 252.858 296.06 268.93 295.758 285.518C291.041 279.402 287.997 272.264 282.528 266.991C282.107 267.227 281.687 267.463 281.267 267.7C283.886 283.326 286.504 298.952 289.122 314.578C288.594 314.855 288.066 315.132 287.537 315.409C282.677 308.072 277.817 300.735 272.958 293.399C271.156 306.872 274.728 319.907 270.338 333.085C267.483 327.462 264.629 321.839 261.775 316.216C263.316 329.61 258.293 355.519 255.186 363.507C252.456 354.158 249.938 345.534 247.42 336.91C247.03 337.038 246.64 337.165 246.25 337.293C241.957 352.435 237.664 367.577 233.372 382.719C233.102 382.626 232.832 382.533 232.562 382.441C231.335 376.194 230.107 369.948 228.88 363.701C228.673 363.845 228.465 363.989 228.258 364.133C224.742 381.003 221.225 397.874 217.539 415.56C220.85 411.031 223.821 406.969 226.791 402.906C227.232 403.105 227.673 403.304 228.113 403.503C224.268 419.476 226.082 435.123 230.046 450.718C232.698 437.612 234.256 424.334 242.785 413C243.846 442.793 245.28 448.979 252.198 451.373C250.7 425.28 263.633 403.313 270.82 379.719C271.346 379.819 271.872 379.919 272.399 380.018C271.34 393.445 270.282 406.871 269.224 420.298C269.618 420.423 270.013 420.548 270.408 420.673C277.55 405.803 286.201 391.595 289.185 374.901C289.595 374.908 290.005 374.914 290.416 374.921C291.18 384.179 291.944 393.437 292.803 403.842C302.84 391.035 304.835 377.148 304.968 361.564C311.697 369.509 310.684 378.975 314.726 387.511C319.99 374.797 322.434 362.558 320.803 349.568C321.243 349.464 321.683 349.36 322.122 349.256C326.183 355.87 330.244 362.485 334.304 369.1C334.911 368.987 335.517 368.875 336.124 368.762C336.124 364.72 336.93 360.468 335.949 356.679C334.13 349.65 331.268 342.89 328.838 336.019C326.972 330.744 325.119 325.469 326.711 318.875C335.895 326.857 337.316 339.178 345.232 347.125C341.406 331.157 336.282 315.561 337.881 298.988C338.408 298.758 338.935 298.528 339.462 298.298C344.618 306.769 349.773 315.241 354.929 323.713C355.324 323.517 355.72 323.322 356.116 323.127C353.737 306.835 349.117 291.273 340.194 277.303C346.746 282.078 353.298 286.854 360.157 291.959C360.274 291.796 360.391 291.632 360.508 291.469C360.268 291.569 360.027 291.67 360.485 291.244C355.855 280.787 351.224 270.33 346.231 259.053C352.724 261.664 358.084 263.819 363.444 265.974C363.771 265.473 364.098 264.972 364.426 264.471C357.098 255.37 349.77 246.27 342.442 237.169C342.78 236.805 343.118 236.44 343.456 236.075C350.246 238.968 357.036 241.861 363.826 244.753C364.092 244.284 364.358 243.815 364.624 243.346C359.593 238.635 354.431 234.054 349.568 229.176C344.75 224.344 340.279 219.182 338.382 212.023C348.027 216.763 357.672 221.503 367.317 226.243C367.693 225.684 368.069 225.126 368.446 224.567C358.473 214.69 348.5 204.812 338.528 194.935C338.684 194.585 338.841 194.235 338.997 193.886C345.344 195.497 351.69 197.109 358.036 198.72C346.56 187.258 332.29 179.408 323.511 165.381C333.074 168.452 340.926 176.273 352.366 176.015C341.002 167.226 330.307 158.955 319.612 150.684C335.241 151.956 369.427 177.737 372.78 189.377C365.67 186.651 358.606 183.941 351.541 181.232C351.376 181.629 351.21 182.026 351.045 182.422C356.187 187.086 361.521 191.557 366.416 196.467C371.307 201.371 374.789 207.177 375.853 215.182C371.177 212.56 367.4 210.443 363.624 208.325C363.152 208.747 362.679 209.169 362.207 209.591C372.193 217.99 378.383 228.314 380.044 242.216C374.64 238.759 370.054 235.824 365.468 232.89C365.209 233.22 364.95 233.551 364.691 233.881C372.634 241.985 379.909 250.437 381.093 263.347C375.582 259.422 371.115 256.24 366.648 253.058C370.137 263.36 378.41 271.605 375.382 284.025C370.856 280.8 366.748 277.873 362.641 274.946C362.489 276.97 363.096 277.96 363.597 279C370.313 292.949 371.723 307.86 371.586 323.001C371.586 323.001 371.614 322.951 371.203 322.394C367.989 317.303 364.776 312.212 361.563 307.122C363.613 322.609 364.843 337.676 357.827 352.656C355.835 348.066 354.106 344.081 352.376 340.095C352.263 353.347 352.99 366.218 346.455 378.54C345.688 374.865 344.921 371.19 344.154 367.515C338.868 384.548 332.368 400.764 323.873 416.156C323.873 409.833 323.873 403.51 323.873 396.606C313.028 414.711 303.349 456.346 306.568 470.606C310.732 459.755 314.822 449.1 318.911 438.444C319.331 438.556 319.75 438.667 320.169 438.779C320.546 446.943 320.924 455.107 321.33 463.905C326.822 455.316 332.238 447.71 336.722 439.589C341.16 431.553 344.657 422.997 348.937 413.88C348.937 424.412 348.937 434.336 348.937 444.261C349.544 444.372 350.15 444.483 350.757 444.594C354.58 431.502 358.403 418.409 362.58 404.107C363.94 420.312 365.164 424.905 369.318 428.078C365.961 412.45 374.463 400.114 378.864 385.494C380.67 391.418 382.172 396.345 383.674 401.272C384.244 401.29 384.814 401.309 385.383 401.327C387.837 390.811 390.291 380.295 392.711 369.926C395.828 373.116 394.327 379.959 400.733 381.964C403.57 370.681 406.326 359.717 409.519 347.017C411.268 353.423 412.676 358.579 414.084 363.735C419.166 348.45 415.781 332.943 416.036 316.989C419.581 323.014 423.127 329.04 426.672 335.065C427.285 334.86 427.898 334.655 428.511 334.449C428.511 318.772 428.511 303.096 428.511 287.062C435.529 291.897 435.808 301.039 441.392 308.523C442.927 292.657 440.255 278.351 439.798 263.539C442.81 267.512 445.823 271.484 449.463 276.283C449.463 269.874 449.902 264.476 449.354 259.18C448.635 252.219 447.14 245.339 445.942 238.487C445.942 238.487 445.9 238.546 446.582 238.615ZM129.642 271.725C130.003 270.318 130.364 268.91 130.725 267.503C130.369 267.38 130.012 267.257 129.655 267.135C128.24 268.617 126.826 270.099 125.412 271.581C125.254 269.399 125.918 267.59 126.402 265.734C127.278 262.369 128.397 259.014 128.773 255.585C129.243 251.302 126.926 249.092 123.142 250.788C118.93 252.675 114.781 255.467 111.682 258.851C108.864 261.928 107.552 266.363 105.442 270.124C104.854 271.171 103.898 272.097 102.921 272.824C100.662 274.505 97.5391 275.531 96.0909 277.705C89.9834 286.874 87.411 297.261 86.6531 307.45C89.2971 308.865 91.7339 309.582 93.2981 311.163C95.0553 312.939 96.0246 315.494 97.6357 318.216C103.895 312.894 101.692 305.433 104.618 299.568C104.899 302.834 105.179 306.1 105.46 309.366C106.088 309.597 106.717 309.828 107.346 310.058C116.262 298.508 123.307 285.783 129.642 271.725ZM116.086 91.6432C116.924 89.4751 117.762 87.307 119.098 83.8499C109.499 87.5593 106.496 96.4908 99.4275 100.847C98.696 99.3811 98.0644 98.1157 97.1968 96.3775C94.9608 99.3211 92.7422 101.812 91.0334 104.613C89.35 107.373 87.5058 108.425 83.4485 105.373C84.7314 110.23 85.6072 113.546 86.6363 117.442C90.5576 114.948 92.5604 109.777 97.2034 113.865C99.0743 110.737 100.746 107.943 102.417 105.149C102.778 105.329 103.139 105.509 103.501 105.688C103.574 106.943 103.647 108.197 103.759 110.111C110.496 104.283 115.36 97.1303 124.232 94.3816C122.37 98.7481 120.85 102.314 119.329 105.881C119.722 106.067 120.115 106.254 120.509 106.44C130.083 98.3893 139.656 90.3385 149.23 82.2877C148.785 81.7045 148.339 81.1213 147.893 80.5381C142.669 83.7162 137.446 86.8942 131.177 90.708C132.681 86.611 133.767 83.6537 134.853 80.6965C132.262 81.309 130.62 82.6171 129.04 83.9967C125.783 86.8411 122.638 89.8243 119.253 92.5053C118.579 93.0395 117.036 92.4782 116.086 91.6432ZM296.606 430.848C294.756 437.656 292.906 444.463 291.077 451.193C289.935 448.565 288.663 445.637 287.391 442.709C286.849 442.881 286.308 443.053 285.766 443.224C285.766 458.757 285.766 474.29 285.766 490.687C301.892 469.393 299.778 444.317 302.664 420.33C300.735 423.596 298.806 426.862 296.606 430.848ZM202.397 378.417C206.082 368.112 207.536 357.517 206.726 345.801C201.211 347.518 203.583 353.618 200.277 356.165C198.702 349.167 197.186 342.427 195.669 335.687C195.151 335.534 194.633 335.382 194.115 335.23C193.154 336.672 191.66 338.011 191.355 339.581C190.888 341.979 191.036 344.557 191.283 347.024C192.622 360.437 199.446 372.995 196.932 387.476C197.986 386.832 198.558 386.69 198.725 386.349C199.89 383.965 200.971 381.539 202.397 378.417ZM203.875 434.695C207.816 420.843 212.493 407.133 212.079 392.292C206.295 398.552 205.973 407.281 200.722 414.189C200.722 409.01 200.722 403.831 200.722 398.653C200.099 398.7 199.476 398.748 198.853 398.796C194.703 411.874 196.521 424.605 201.645 438.022C202.678 436.661 203.153 436.034 203.875 434.695ZM86.7141 209.962C86.5381 206.823 86.708 203.605 86.0265 200.58C85.7273 199.252 83.8351 197.728 82.4016 197.379C81.1676 197.078 79.1901 197.966 78.2211 198.978C77.318 199.922 77.0134 201.711 76.9566 203.149C76.5299 213.936 78.7405 224.262 82.7699 234.222C83.0776 234.983 83.9222 235.526 85.4644 237.197C86.719 228.06 87.8436 220.065 88.8483 212.054C88.9066 211.589 87.9914 211.003 86.7141 209.962ZM222.339 452.567C220.752 448.231 219.165 443.894 217.577 439.558C217.078 439.643 216.578 439.728 216.078 439.814C216.357 445.417 216.636 451.02 216.949 457.315C214.307 455.272 212.235 453.671 209.134 451.274C215.197 462.924 220.468 473.053 226.341 484.339C226.745 472.995 227.855 462.809 222.339 452.567ZM269.074 465.508C269.261 463.291 269.448 461.074 269.635 458.857C269.059 458.71 268.482 458.563 267.906 458.416C266.616 463.039 265.326 467.662 264.035 472.286C263.615 472.31 263.195 472.335 262.775 472.36C262.048 469.239 261.395 466.097 260.555 463.006C260.224 461.786 259.473 460.681 258.914 459.523C258.3 460.774 257.02 462.117 257.177 463.263C258.37 471.979 259.74 480.675 261.304 489.333C261.69 491.474 262.987 493.451 263.865 495.504C264.514 495.471 265.163 495.438 265.811 495.406C266.881 485.734 267.95 476.063 269.074 465.508ZM28.1789 235.542C28.5222 236.102 28.8656 236.663 29.5327 237.753C31.8499 231.719 34.5552 226.23 35.9371 220.427C36.6404 217.473 35.1511 213.896 34.1823 210.745C34.0159 210.204 31.2261 209.825 30.0893 210.341C25.7626 212.308 23.3209 217.232 24.3259 222.48C25.1294 226.675 26.6997 230.724 28.1789 235.542ZM275.152 489.11C275.892 488.677 277.128 488.387 277.3 487.79C280.994 475.006 280.558 462.105 278.726 448.311C277.234 449.448 275.896 449.98 275.878 450.553C275.485 463.123 275.239 475.697 275.152 489.11ZM190.235 360.819C188.965 353.764 188.965 353.764 184.846 354.088C185.668 365.005 186.427 375.935 187.406 386.845C187.511 388.01 188.905 389.06 190.46 391.217C190.46 380.306 190.46 370.994 190.235 360.819ZM93.8284 319.318C92.9052 317.583 91.982 315.848 90.3433 312.769C86.8744 320.681 80.6251 325.492 81.3795 333.574C86.5259 333.763 92.7629 326.792 93.8284 319.318ZM178.007 377.892C178.259 382.646 178.051 387.518 181.124 392.375C184.622 384.004 182.556 366.013 178.007 363.925C178.007 368.368 178.007 372.651 178.007 377.892ZM193.209 418.421C192.65 414.453 192.092 410.486 191.403 405.598C185.793 412.412 189.461 429.471 196.721 433.589C195.577 428.564 194.518 423.906 193.209 418.421ZM43.0925 324.41C43.3968 327.363 43.2821 330.439 44.1061 333.239C45.2623 337.167 48.2058 338.877 51.8265 338.19C51.5584 334.755 51.9494 331.444 50.8965 328.684C49.9031 326.08 47.412 324.037 45.4518 321.862C45.3865 321.789 43.9292 322.972 43.0925 324.41ZM124.375 107.539C122.731 110.435 121.087 113.331 119.443 116.226C119.945 116.542 120.447 116.858 120.949 117.174C127.969 112.289 132.287 105.304 136.138 97.9564C135.429 97.2984 134.72 96.6404 134.01 95.9823C130.95 99.6496 127.89 103.317 124.375 107.539ZM110.878 132.786C112.259 132.979 113.64 133.172 115.149 133.383C114.563 127.954 102.565 124.766 95.6813 128.723C101.119 130.203 105.606 131.424 110.878 132.786ZM57.0728 191.848C55.7959 191.393 54.5189 190.939 52.6698 190.281C52.8756 195.528 51.7488 200.227 56.5026 203.803C59.4592 199.905 59.9372 196.314 57.0728 191.848ZM116.476 125.713C120.741 126.161 125.006 126.609 129.272 127.057C129.323 126.563 129.373 126.068 129.424 125.573C124.502 122.062 118.964 122.512 113.474 122.657C113.336 123.13 113.198 123.602 113.059 124.074C113.929 124.578 114.799 125.082 116.476 125.713ZM32.0049 204.56C33.326 204.968 35.6339 205.985 35.8152 205.691C37.5716 202.841 37.5916 199.974 33.9512 196.341C33.0802 199.44 32.4734 201.599 32.0049 204.56ZM48.5486 196.731C48.4575 196.245 48.3664 195.76 48.2753 195.274C46.9953 196.732 45.174 198.014 44.6262 199.708C44.2632 200.831 45.7246 202.544 46.3692 203.992C47.0995 202.661 47.9506 201.378 48.5096 199.978C48.7952 199.263 48.5572 198.339 48.5486 196.731ZM72.0008 339.781C75.2892 341.265 76.2952 339.038 76.192 336.632C76.1454 335.547 74.2058 334.542 73.1251 333.501C72.6242 335.375 72.1233 337.248 72.0008 339.781ZM25.3725 198.856C21.6625 201.213 23.9678 203.831 24.643 206.837C29.3693 201.647 29.4663 200.945 25.3725 198.856ZM62.8961 338.82C64.2865 339.704 65.6768 340.588 67.0671 341.472C67.0671 339.614 67.0671 337.755 67.0671 335.479C65.4157 336.022 64.5703 336.147 63.9138 336.567C63.4348 336.873 63.2049 337.569 62.8961 338.82ZM7.48589 177.876L7.33774 178.236C7.33774 178.236 7.65245 178.151 7.48589 177.876Z" fill="#a81621"/>
</svg>
